<mxfile host="app.diagrams.net" modified="2022-03-15T10:10:30.541Z" agent="5.0 (Windows NT 6.1; Win64; x64) AppleWebKit/537.36 (KHTML, like Gecko) Chrome/96.0.4664.110 Safari/537.36" etag="zTO28ZqNxWNqcKRulSMB" version="17.0.0" type="github" pages="7">
  <diagram name="Page-1" id="c37626ed-c26b-45fb-9056-f9ebc6bb27b6">
    <mxGraphModel dx="1347" dy="802" grid="0" gridSize="10" guides="1" tooltips="1" connect="1" arrows="1" fold="1" page="1" pageScale="1" pageWidth="1100" pageHeight="850" math="0" shadow="0">
      <root>
        <mxCell id="0" />
        <mxCell id="1" parent="0" />
        <mxCell id="d9Q32FyF8UjTazxd6HZi-3" value="Byte-order" style="edgeStyle=orthogonalEdgeStyle;curved=0;rounded=0;sketch=0;orthogonalLoop=1;jettySize=auto;html=1;" parent="1" source="d9Q32FyF8UjTazxd6HZi-1" target="d9Q32FyF8UjTazxd6HZi-2" edge="1">
          <mxGeometry relative="1" as="geometry" />
        </mxCell>
        <mxCell id="d9Q32FyF8UjTazxd6HZi-1" value="struct" style="rounded=0;whiteSpace=wrap;html=1;sketch=0;" parent="1" vertex="1">
          <mxGeometry x="233" y="215" width="60" height="38" as="geometry" />
        </mxCell>
        <mxCell id="d9Q32FyF8UjTazxd6HZi-7" value="" style="edgeStyle=orthogonalEdgeStyle;curved=0;rounded=0;sketch=0;orthogonalLoop=1;jettySize=auto;html=1;" parent="1" source="d9Q32FyF8UjTazxd6HZi-2" target="d9Q32FyF8UjTazxd6HZi-6" edge="1">
          <mxGeometry relative="1" as="geometry" />
        </mxCell>
        <mxCell id="d9Q32FyF8UjTazxd6HZi-2" value="t-struct" style="rounded=0;whiteSpace=wrap;html=1;sketch=0;" parent="1" vertex="1">
          <mxGeometry x="233" y="308" width="60" height="38" as="geometry" />
        </mxCell>
        <mxCell id="d9Q32FyF8UjTazxd6HZi-11" value="Base64-Encode" style="edgeStyle=orthogonalEdgeStyle;curved=0;rounded=0;sketch=0;orthogonalLoop=1;jettySize=auto;html=1;" parent="1" source="d9Q32FyF8UjTazxd6HZi-6" target="d9Q32FyF8UjTazxd6HZi-10" edge="1">
          <mxGeometry relative="1" as="geometry" />
        </mxCell>
        <mxCell id="d9Q32FyF8UjTazxd6HZi-6" value="char buff" style="rounded=0;whiteSpace=wrap;html=1;sketch=0;" parent="1" vertex="1">
          <mxGeometry x="233" y="376" width="60" height="38" as="geometry" />
        </mxCell>
        <mxCell id="d9Q32FyF8UjTazxd6HZi-20" style="edgeStyle=orthogonalEdgeStyle;curved=0;rounded=0;sketch=0;orthogonalLoop=1;jettySize=auto;html=1;exitX=1;exitY=0.5;exitDx=0;exitDy=0;entryX=0;entryY=0.5;entryDx=0;entryDy=0;dashed=1;" parent="1" source="d9Q32FyF8UjTazxd6HZi-10" target="d9Q32FyF8UjTazxd6HZi-18" edge="1">
          <mxGeometry relative="1" as="geometry" />
        </mxCell>
        <mxCell id="d9Q32FyF8UjTazxd6HZi-22" value="HTTPS" style="edgeLabel;html=1;align=center;verticalAlign=middle;resizable=0;points=[];rounded=0;" parent="d9Q32FyF8UjTazxd6HZi-20" vertex="1" connectable="0">
          <mxGeometry x="0.14" relative="1" as="geometry">
            <mxPoint as="offset" />
          </mxGeometry>
        </mxCell>
        <mxCell id="d9Q32FyF8UjTazxd6HZi-10" value="ASCII" style="rounded=0;whiteSpace=wrap;html=1;sketch=0;" parent="1" vertex="1">
          <mxGeometry x="233" y="468" width="60" height="38" as="geometry" />
        </mxCell>
        <mxCell id="d9Q32FyF8UjTazxd6HZi-12" value="Byte-order" style="edgeStyle=orthogonalEdgeStyle;curved=0;rounded=0;sketch=0;orthogonalLoop=1;jettySize=auto;html=1;" parent="1" source="d9Q32FyF8UjTazxd6HZi-15" target="d9Q32FyF8UjTazxd6HZi-13" edge="1">
          <mxGeometry relative="1" as="geometry" />
        </mxCell>
        <mxCell id="d9Q32FyF8UjTazxd6HZi-13" value="struct" style="rounded=0;whiteSpace=wrap;html=1;sketch=0;" parent="1" vertex="1">
          <mxGeometry x="457" y="215" width="60" height="38" as="geometry" />
        </mxCell>
        <mxCell id="d9Q32FyF8UjTazxd6HZi-14" value="" style="edgeStyle=orthogonalEdgeStyle;curved=0;rounded=0;sketch=0;orthogonalLoop=1;jettySize=auto;html=1;" parent="1" source="d9Q32FyF8UjTazxd6HZi-17" target="d9Q32FyF8UjTazxd6HZi-15" edge="1">
          <mxGeometry relative="1" as="geometry" />
        </mxCell>
        <mxCell id="d9Q32FyF8UjTazxd6HZi-15" value="t-struct" style="rounded=0;whiteSpace=wrap;html=1;sketch=0;" parent="1" vertex="1">
          <mxGeometry x="457" y="308" width="60" height="38" as="geometry" />
        </mxCell>
        <mxCell id="d9Q32FyF8UjTazxd6HZi-16" value="Base64-Decode" style="edgeStyle=orthogonalEdgeStyle;curved=0;rounded=0;sketch=0;orthogonalLoop=1;jettySize=auto;html=1;" parent="1" source="d9Q32FyF8UjTazxd6HZi-18" target="d9Q32FyF8UjTazxd6HZi-17" edge="1">
          <mxGeometry relative="1" as="geometry" />
        </mxCell>
        <mxCell id="d9Q32FyF8UjTazxd6HZi-17" value="char buff" style="rounded=0;whiteSpace=wrap;html=1;sketch=0;" parent="1" vertex="1">
          <mxGeometry x="457" y="376" width="60" height="38" as="geometry" />
        </mxCell>
        <mxCell id="d9Q32FyF8UjTazxd6HZi-18" value="ASCII" style="rounded=0;whiteSpace=wrap;html=1;sketch=0;" parent="1" vertex="1">
          <mxGeometry x="457" y="468" width="60" height="38" as="geometry" />
        </mxCell>
      </root>
    </mxGraphModel>
  </diagram>
  <diagram id="k4smMWwGvKwOR4Ik-S3E" name="趋势图">
    <mxGraphModel dx="1347" dy="1914" grid="1" gridSize="10" guides="1" tooltips="1" connect="1" arrows="1" fold="1" page="1" pageScale="1" pageWidth="827" pageHeight="1169" math="0" shadow="0">
      <root>
        <mxCell id="NJLI8shMKvCf9KrKucQ3-0" />
        <mxCell id="NJLI8shMKvCf9KrKucQ3-1" parent="NJLI8shMKvCf9KrKucQ3-0" />
        <mxCell id="W-Kb8Sh_XI5pBxy5fv9S-0" value="上级管理平台" style="rounded=0;whiteSpace=wrap;html=1;" parent="NJLI8shMKvCf9KrKucQ3-1" vertex="1">
          <mxGeometry x="310" y="-600" width="120" height="60" as="geometry" />
        </mxCell>
        <mxCell id="W-Kb8Sh_XI5pBxy5fv9S-1" value="" style="edgeStyle=none;shape=flexArrow;rounded=0;orthogonalLoop=1;jettySize=auto;html=1;" parent="NJLI8shMKvCf9KrKucQ3-1" source="W-Kb8Sh_XI5pBxy5fv9S-2" target="W-Kb8Sh_XI5pBxy5fv9S-0" edge="1">
          <mxGeometry relative="1" as="geometry" />
        </mxCell>
        <mxCell id="W-Kb8Sh_XI5pBxy5fv9S-2" value="下级管理平台" style="rounded=0;whiteSpace=wrap;html=1;" parent="NJLI8shMKvCf9KrKucQ3-1" vertex="1">
          <mxGeometry x="310" y="-425" width="120" height="60" as="geometry" />
        </mxCell>
        <mxCell id="W-Kb8Sh_XI5pBxy5fv9S-3" value="" style="edgeStyle=none;shape=flexArrow;rounded=0;orthogonalLoop=1;jettySize=auto;html=1;entryX=0.75;entryY=1;entryDx=0;entryDy=0;" parent="NJLI8shMKvCf9KrKucQ3-1" source="W-Kb8Sh_XI5pBxy5fv9S-4" target="W-Kb8Sh_XI5pBxy5fv9S-0" edge="1">
          <mxGeometry relative="1" as="geometry" />
        </mxCell>
        <mxCell id="W-Kb8Sh_XI5pBxy5fv9S-4" value="染色网关" style="points=[];aspect=fixed;html=1;align=center;shadow=0;dashed=0;image;image=img/lib/allied_telesis/media_converters/Media_Converter_Modular.svg;" parent="NJLI8shMKvCf9KrKucQ3-1" vertex="1">
          <mxGeometry x="489.2" y="-440" width="70.8" height="54.6" as="geometry" />
        </mxCell>
        <mxCell id="W-Kb8Sh_XI5pBxy5fv9S-5" style="edgeStyle=none;shape=flexArrow;rounded=0;orthogonalLoop=1;jettySize=auto;html=1;entryX=1;entryY=0.5;entryDx=0;entryDy=0;" parent="NJLI8shMKvCf9KrKucQ3-1" source="W-Kb8Sh_XI5pBxy5fv9S-6" target="W-Kb8Sh_XI5pBxy5fv9S-0" edge="1">
          <mxGeometry relative="1" as="geometry" />
        </mxCell>
        <mxCell id="W-Kb8Sh_XI5pBxy5fv9S-6" value="染色网关" style="points=[];aspect=fixed;html=1;align=center;shadow=0;dashed=0;image;image=img/lib/allied_telesis/media_converters/Media_Converter_Modular.svg;" parent="NJLI8shMKvCf9KrKucQ3-1" vertex="1">
          <mxGeometry x="560" y="-530" width="70.8" height="54.6" as="geometry" />
        </mxCell>
        <mxCell id="W-Kb8Sh_XI5pBxy5fv9S-7" value="" style="shape=flexArrow;rounded=0;orthogonalLoop=1;jettySize=auto;html=1;" parent="NJLI8shMKvCf9KrKucQ3-1" source="W-Kb8Sh_XI5pBxy5fv9S-8" target="W-Kb8Sh_XI5pBxy5fv9S-2" edge="1">
          <mxGeometry relative="1" as="geometry" />
        </mxCell>
        <mxCell id="W-Kb8Sh_XI5pBxy5fv9S-8" value="染色网关" style="points=[];aspect=fixed;html=1;align=center;shadow=0;dashed=0;image;image=img/lib/allied_telesis/media_converters/Media_Converter_Modular.svg;" parent="NJLI8shMKvCf9KrKucQ3-1" vertex="1">
          <mxGeometry x="260" y="-270" width="70.8" height="54.6" as="geometry" />
        </mxCell>
        <mxCell id="W-Kb8Sh_XI5pBxy5fv9S-9" value="" style="edgeStyle=none;shape=flexArrow;rounded=0;orthogonalLoop=1;jettySize=auto;html=1;" parent="NJLI8shMKvCf9KrKucQ3-1" source="W-Kb8Sh_XI5pBxy5fv9S-10" target="W-Kb8Sh_XI5pBxy5fv9S-2" edge="1">
          <mxGeometry relative="1" as="geometry" />
        </mxCell>
        <mxCell id="W-Kb8Sh_XI5pBxy5fv9S-10" value="染色网关" style="points=[];aspect=fixed;html=1;align=center;shadow=0;dashed=0;image;image=img/lib/allied_telesis/media_converters/Media_Converter_Modular.svg;" parent="NJLI8shMKvCf9KrKucQ3-1" vertex="1">
          <mxGeometry x="429.2" y="-270" width="70.8" height="54.6" as="geometry" />
        </mxCell>
      </root>
    </mxGraphModel>
  </diagram>
  <diagram id="I-PCc_7QJtp3--57oG5d" name="设备-&gt;平台">
    <mxGraphModel dx="2174" dy="1914" grid="1" gridSize="10" guides="1" tooltips="1" connect="1" arrows="1" fold="1" page="1" pageScale="1" pageWidth="827" pageHeight="1169" math="0" shadow="0">
      <root>
        <mxCell id="DFpaLJx0KEZfhMfiUNPI-0" />
        <mxCell id="DFpaLJx0KEZfhMfiUNPI-1" parent="DFpaLJx0KEZfhMfiUNPI-0" />
        <mxCell id="6ZMXe1f9MDhmLWCWLghN-4" value="下级平台" style="shape=umlLifeline;perimeter=lifelinePerimeter;whiteSpace=wrap;html=1;container=1;collapsible=0;recursiveResize=0;outlineConnect=0;" parent="DFpaLJx0KEZfhMfiUNPI-1" vertex="1">
          <mxGeometry x="-150" y="-780" width="100" height="650" as="geometry" />
        </mxCell>
        <mxCell id="6ZMXe1f9MDhmLWCWLghN-5" value="" style="html=1;points=[];perimeter=orthogonalPerimeter;" parent="6ZMXe1f9MDhmLWCWLghN-4" vertex="1">
          <mxGeometry x="45" y="91.99999999999999" width="10" height="28" as="geometry" />
        </mxCell>
        <mxCell id="6ZMXe1f9MDhmLWCWLghN-35" value="" style="html=1;points=[];perimeter=orthogonalPerimeter;" parent="6ZMXe1f9MDhmLWCWLghN-4" vertex="1">
          <mxGeometry x="45" y="152" width="10" height="28" as="geometry" />
        </mxCell>
        <mxCell id="6ZMXe1f9MDhmLWCWLghN-40" value="" style="html=1;points=[];perimeter=orthogonalPerimeter;" parent="6ZMXe1f9MDhmLWCWLghN-4" vertex="1">
          <mxGeometry x="45" y="270" width="10" height="28" as="geometry" />
        </mxCell>
        <mxCell id="CB8Sl7y3f9_4LkdyxGWz-1" value="" style="html=1;points=[];perimeter=orthogonalPerimeter;" parent="6ZMXe1f9MDhmLWCWLghN-4" vertex="1">
          <mxGeometry x="45" y="390" width="10" height="28" as="geometry" />
        </mxCell>
        <mxCell id="CB8Sl7y3f9_4LkdyxGWz-18" value="" style="html=1;points=[];perimeter=orthogonalPerimeter;" parent="6ZMXe1f9MDhmLWCWLghN-4" vertex="1">
          <mxGeometry x="50" y="550" width="10" height="28" as="geometry" />
        </mxCell>
        <mxCell id="CB8Sl7y3f9_4LkdyxGWz-38" value="" style="html=1;points=[];perimeter=orthogonalPerimeter;" parent="6ZMXe1f9MDhmLWCWLghN-4" vertex="1">
          <mxGeometry x="45" y="210" width="10" height="30" as="geometry" />
        </mxCell>
        <mxCell id="CB8Sl7y3f9_4LkdyxGWz-39" value="" style="edgeStyle=orthogonalEdgeStyle;html=1;align=left;spacingLeft=2;endArrow=block;rounded=0;entryX=0.969;entryY=0.898;entryDx=0;entryDy=0;entryPerimeter=0;exitX=1.169;exitY=-0.004;exitDx=0;exitDy=0;exitPerimeter=0;" parent="6ZMXe1f9MDhmLWCWLghN-4" source="CB8Sl7y3f9_4LkdyxGWz-38" target="CB8Sl7y3f9_4LkdyxGWz-38" edge="1">
          <mxGeometry relative="1" as="geometry">
            <mxPoint x="70" y="210" as="sourcePoint" />
            <Array as="points">
              <mxPoint x="80" y="210" />
              <mxPoint x="80" y="237" />
            </Array>
          </mxGeometry>
        </mxCell>
        <mxCell id="CB8Sl7y3f9_4LkdyxGWz-40" value="汇聚数据" style="edgeLabel;html=1;align=left;verticalAlign=middle;resizable=0;points=[];" parent="CB8Sl7y3f9_4LkdyxGWz-39" vertex="1" connectable="0">
          <mxGeometry x="-0.1094" relative="1" as="geometry">
            <mxPoint y="5" as="offset" />
          </mxGeometry>
        </mxCell>
        <mxCell id="CB8Sl7y3f9_4LkdyxGWz-41" value="" style="html=1;points=[];perimeter=orthogonalPerimeter;" parent="6ZMXe1f9MDhmLWCWLghN-4" vertex="1">
          <mxGeometry x="45" y="470.12" width="10" height="30" as="geometry" />
        </mxCell>
        <mxCell id="CB8Sl7y3f9_4LkdyxGWz-42" value="" style="edgeStyle=orthogonalEdgeStyle;html=1;align=left;spacingLeft=2;endArrow=block;rounded=0;entryX=0.969;entryY=0.898;entryDx=0;entryDy=0;entryPerimeter=0;exitX=1.169;exitY=-0.004;exitDx=0;exitDy=0;exitPerimeter=0;" parent="6ZMXe1f9MDhmLWCWLghN-4" source="CB8Sl7y3f9_4LkdyxGWz-41" target="CB8Sl7y3f9_4LkdyxGWz-41" edge="1">
          <mxGeometry relative="1" as="geometry">
            <mxPoint x="120" y="1250.12" as="sourcePoint" />
            <Array as="points">
              <mxPoint x="80" y="470.12" />
              <mxPoint x="80" y="497.12" />
            </Array>
          </mxGeometry>
        </mxCell>
        <mxCell id="CB8Sl7y3f9_4LkdyxGWz-43" value="汇聚数据" style="edgeLabel;html=1;align=left;verticalAlign=middle;resizable=0;points=[];" parent="CB8Sl7y3f9_4LkdyxGWz-42" vertex="1" connectable="0">
          <mxGeometry x="-0.1094" relative="1" as="geometry">
            <mxPoint y="5" as="offset" />
          </mxGeometry>
        </mxCell>
        <mxCell id="6ZMXe1f9MDhmLWCWLghN-8" value="" style="endArrow=none;dashed=1;html=1;rounded=0;" parent="DFpaLJx0KEZfhMfiUNPI-1" edge="1">
          <mxGeometry width="50" height="50" relative="1" as="geometry">
            <mxPoint x="-430" y="-720" as="sourcePoint" />
            <mxPoint x="230" y="-720" as="targetPoint" />
            <Array as="points" />
          </mxGeometry>
        </mxCell>
        <mxCell id="6ZMXe1f9MDhmLWCWLghN-9" value="染色模块" style="shape=umlLifeline;perimeter=lifelinePerimeter;whiteSpace=wrap;html=1;container=1;collapsible=0;recursiveResize=0;outlineConnect=0;" parent="DFpaLJx0KEZfhMfiUNPI-1" vertex="1">
          <mxGeometry x="130" y="-780" width="100" height="650" as="geometry" />
        </mxCell>
        <mxCell id="6ZMXe1f9MDhmLWCWLghN-32" value="" style="html=1;points=[];perimeter=orthogonalPerimeter;" parent="6ZMXe1f9MDhmLWCWLghN-9" vertex="1">
          <mxGeometry x="45" y="92" width="10" height="28" as="geometry" />
        </mxCell>
        <mxCell id="6ZMXe1f9MDhmLWCWLghN-45" value="" style="html=1;points=[];perimeter=orthogonalPerimeter;" parent="6ZMXe1f9MDhmLWCWLghN-9" vertex="1">
          <mxGeometry x="45" y="152" width="10" height="28" as="geometry" />
        </mxCell>
        <mxCell id="CB8Sl7y3f9_4LkdyxGWz-2" value="" style="html=1;points=[];perimeter=orthogonalPerimeter;" parent="6ZMXe1f9MDhmLWCWLghN-9" vertex="1">
          <mxGeometry x="45" y="390" width="10" height="28" as="geometry" />
        </mxCell>
        <mxCell id="6ZMXe1f9MDhmLWCWLghN-14" value="" style="edgeStyle=none;rounded=0;orthogonalLoop=1;jettySize=auto;html=1;entryX=0.995;entryY=0.043;entryDx=0;entryDy=0;entryPerimeter=0;exitX=-0.193;exitY=0.054;exitDx=0;exitDy=0;exitPerimeter=0;" parent="DFpaLJx0KEZfhMfiUNPI-1" source="6ZMXe1f9MDhmLWCWLghN-32" target="6ZMXe1f9MDhmLWCWLghN-5" edge="1">
          <mxGeometry relative="1" as="geometry">
            <mxPoint x="140" y="-687" as="sourcePoint" />
            <mxPoint x="-136" y="-696" as="targetPoint" />
          </mxGeometry>
        </mxCell>
        <mxCell id="6ZMXe1f9MDhmLWCWLghN-31" value="PUSH" style="edgeLabel;html=1;align=center;verticalAlign=middle;resizable=0;points=[];" parent="6ZMXe1f9MDhmLWCWLghN-14" vertex="1" connectable="0">
          <mxGeometry x="-0.3434" y="1" relative="1" as="geometry">
            <mxPoint x="54" y="-11" as="offset" />
          </mxGeometry>
        </mxCell>
        <mxCell id="6ZMXe1f9MDhmLWCWLghN-33" value="" style="endArrow=classic;html=1;rounded=0;exitX=1.09;exitY=0.859;exitDx=0;exitDy=0;exitPerimeter=0;entryX=-0.023;entryY=0.859;entryDx=0;entryDy=0;entryPerimeter=0;" parent="DFpaLJx0KEZfhMfiUNPI-1" source="6ZMXe1f9MDhmLWCWLghN-5" target="6ZMXe1f9MDhmLWCWLghN-32" edge="1">
          <mxGeometry width="50" height="50" relative="1" as="geometry">
            <mxPoint x="-16" y="-648" as="sourcePoint" />
            <mxPoint x="34" y="-698" as="targetPoint" />
          </mxGeometry>
        </mxCell>
        <mxCell id="6ZMXe1f9MDhmLWCWLghN-34" value="ACK" style="edgeLabel;html=1;align=center;verticalAlign=middle;resizable=0;points=[];" parent="6ZMXe1f9MDhmLWCWLghN-33" vertex="1" connectable="0">
          <mxGeometry x="-0.0876" y="-2" relative="1" as="geometry">
            <mxPoint x="-89" y="-12" as="offset" />
          </mxGeometry>
        </mxCell>
        <mxCell id="gcvQyyXbxjTSaQXd6-Sk-0" value="上级平台" style="shape=umlLifeline;perimeter=lifelinePerimeter;whiteSpace=wrap;html=1;container=1;collapsible=0;recursiveResize=0;outlineConnect=0;" parent="DFpaLJx0KEZfhMfiUNPI-1" vertex="1">
          <mxGeometry x="-430" y="-780" width="100" height="650" as="geometry" />
        </mxCell>
        <mxCell id="gcvQyyXbxjTSaQXd6-Sk-2" value="" style="html=1;points=[];perimeter=orthogonalPerimeter;" parent="gcvQyyXbxjTSaQXd6-Sk-0" vertex="1">
          <mxGeometry x="45" y="270" width="10" height="28" as="geometry" />
        </mxCell>
        <mxCell id="CB8Sl7y3f9_4LkdyxGWz-0" value="" style="endArrow=none;dashed=1;html=1;rounded=0;" parent="gcvQyyXbxjTSaQXd6-Sk-0" edge="1">
          <mxGeometry width="50" height="50" relative="1" as="geometry">
            <mxPoint y="620" as="sourcePoint" />
            <mxPoint x="660" y="620" as="targetPoint" />
            <Array as="points" />
          </mxGeometry>
        </mxCell>
        <mxCell id="CB8Sl7y3f9_4LkdyxGWz-13" value="" style="html=1;points=[];perimeter=orthogonalPerimeter;" parent="gcvQyyXbxjTSaQXd6-Sk-0" vertex="1">
          <mxGeometry x="45" y="550" width="10" height="28" as="geometry" />
        </mxCell>
        <mxCell id="6ZMXe1f9MDhmLWCWLghN-36" value="" style="edgeStyle=none;rounded=0;orthogonalLoop=1;jettySize=auto;html=1;entryX=0.995;entryY=0.043;entryDx=0;entryDy=0;entryPerimeter=0;exitX=0.033;exitY=0.046;exitDx=0;exitDy=0;exitPerimeter=0;" parent="DFpaLJx0KEZfhMfiUNPI-1" source="6ZMXe1f9MDhmLWCWLghN-45" target="6ZMXe1f9MDhmLWCWLghN-35" edge="1">
          <mxGeometry relative="1" as="geometry">
            <mxPoint x="155" y="-625.585" as="sourcePoint" />
            <mxPoint x="-100" y="-636" as="targetPoint" />
          </mxGeometry>
        </mxCell>
        <mxCell id="6ZMXe1f9MDhmLWCWLghN-37" value="PUSH" style="edgeLabel;html=1;align=center;verticalAlign=middle;resizable=0;points=[];" parent="6ZMXe1f9MDhmLWCWLghN-36" vertex="1" connectable="0">
          <mxGeometry x="-0.3434" y="1" relative="1" as="geometry">
            <mxPoint x="54" y="-11" as="offset" />
          </mxGeometry>
        </mxCell>
        <mxCell id="6ZMXe1f9MDhmLWCWLghN-38" value="" style="endArrow=classic;html=1;rounded=0;exitX=1.09;exitY=0.859;exitDx=0;exitDy=0;exitPerimeter=0;" parent="DFpaLJx0KEZfhMfiUNPI-1" source="6ZMXe1f9MDhmLWCWLghN-35" target="6ZMXe1f9MDhmLWCWLghN-45" edge="1">
          <mxGeometry width="50" height="50" relative="1" as="geometry">
            <mxPoint x="20" y="-588" as="sourcePoint" />
            <mxPoint x="154.76999999999998" y="-603.9480000000001" as="targetPoint" />
          </mxGeometry>
        </mxCell>
        <mxCell id="6ZMXe1f9MDhmLWCWLghN-39" value="ACK" style="edgeLabel;html=1;align=center;verticalAlign=middle;resizable=0;points=[];" parent="6ZMXe1f9MDhmLWCWLghN-38" vertex="1" connectable="0">
          <mxGeometry x="-0.0876" y="-2" relative="1" as="geometry">
            <mxPoint x="-89" y="-12" as="offset" />
          </mxGeometry>
        </mxCell>
        <mxCell id="gcvQyyXbxjTSaQXd6-Sk-3" value="" style="edgeStyle=none;rounded=0;orthogonalLoop=1;jettySize=auto;html=1;exitX=0.141;exitY=0.064;exitDx=0;exitDy=0;exitPerimeter=0;entryX=0.995;entryY=0.043;entryDx=0;entryDy=0;entryPerimeter=0;" parent="DFpaLJx0KEZfhMfiUNPI-1" source="6ZMXe1f9MDhmLWCWLghN-40" target="gcvQyyXbxjTSaQXd6-Sk-2" edge="1">
          <mxGeometry relative="1" as="geometry">
            <mxPoint x="-125" y="-537.585" as="sourcePoint" />
            <mxPoint x="-380" y="-548" as="targetPoint" />
          </mxGeometry>
        </mxCell>
        <mxCell id="gcvQyyXbxjTSaQXd6-Sk-4" value="PUSH" style="edgeLabel;html=1;align=center;verticalAlign=middle;resizable=0;points=[];" parent="gcvQyyXbxjTSaQXd6-Sk-3" vertex="1" connectable="0">
          <mxGeometry x="-0.3434" y="1" relative="1" as="geometry">
            <mxPoint x="54" y="-11" as="offset" />
          </mxGeometry>
        </mxCell>
        <mxCell id="gcvQyyXbxjTSaQXd6-Sk-5" value="" style="endArrow=classic;html=1;rounded=0;exitX=1.09;exitY=0.859;exitDx=0;exitDy=0;exitPerimeter=0;entryX=-0.11;entryY=0.849;entryDx=0;entryDy=0;entryPerimeter=0;" parent="DFpaLJx0KEZfhMfiUNPI-1" source="gcvQyyXbxjTSaQXd6-Sk-2" target="6ZMXe1f9MDhmLWCWLghN-40" edge="1">
          <mxGeometry width="50" height="50" relative="1" as="geometry">
            <mxPoint x="-260" y="-500" as="sourcePoint" />
            <mxPoint x="-125.23000000000002" y="-515.9480000000001" as="targetPoint" />
          </mxGeometry>
        </mxCell>
        <mxCell id="gcvQyyXbxjTSaQXd6-Sk-6" value="ACK" style="edgeLabel;html=1;align=center;verticalAlign=middle;resizable=0;points=[];" parent="gcvQyyXbxjTSaQXd6-Sk-5" vertex="1" connectable="0">
          <mxGeometry x="-0.0876" y="-2" relative="1" as="geometry">
            <mxPoint x="-89" y="-12" as="offset" />
          </mxGeometry>
        </mxCell>
        <mxCell id="6ZMXe1f9MDhmLWCWLghN-17" value="" style="endArrow=none;dashed=1;html=1;rounded=0;" parent="DFpaLJx0KEZfhMfiUNPI-1" edge="1">
          <mxGeometry width="50" height="50" relative="1" as="geometry">
            <mxPoint x="-430" y="-440" as="sourcePoint" />
            <mxPoint x="230" y="-440" as="targetPoint" />
            <Array as="points" />
          </mxGeometry>
        </mxCell>
        <mxCell id="CB8Sl7y3f9_4LkdyxGWz-3" value="" style="edgeStyle=none;rounded=0;orthogonalLoop=1;jettySize=auto;html=1;entryX=-0.128;entryY=0.028;entryDx=0;entryDy=0;entryPerimeter=0;exitX=1.042;exitY=0.052;exitDx=0;exitDy=0;exitPerimeter=0;" parent="DFpaLJx0KEZfhMfiUNPI-1" source="CB8Sl7y3f9_4LkdyxGWz-1" target="CB8Sl7y3f9_4LkdyxGWz-2" edge="1">
          <mxGeometry relative="1" as="geometry">
            <mxPoint x="-90" y="-390" as="sourcePoint" />
            <mxPoint x="34.950000000000045" y="-389.99600000000004" as="targetPoint" />
          </mxGeometry>
        </mxCell>
        <mxCell id="CB8Sl7y3f9_4LkdyxGWz-4" value="PULL" style="edgeLabel;html=1;align=left;verticalAlign=middle;resizable=0;points=[];" parent="CB8Sl7y3f9_4LkdyxGWz-3" vertex="1" connectable="0">
          <mxGeometry x="-0.3434" y="1" relative="1" as="geometry">
            <mxPoint x="-89" y="-10" as="offset" />
          </mxGeometry>
        </mxCell>
        <mxCell id="CB8Sl7y3f9_4LkdyxGWz-5" value="" style="edgeStyle=none;rounded=0;orthogonalLoop=1;jettySize=auto;html=1;exitX=-0.02;exitY=0.743;exitDx=0;exitDy=0;exitPerimeter=0;entryX=1.14;entryY=0.743;entryDx=0;entryDy=0;entryPerimeter=0;" parent="DFpaLJx0KEZfhMfiUNPI-1" source="CB8Sl7y3f9_4LkdyxGWz-2" target="CB8Sl7y3f9_4LkdyxGWz-1" edge="1">
          <mxGeometry relative="1" as="geometry">
            <mxPoint x="170.38000000000017" y="-369.912" as="sourcePoint" />
            <mxPoint x="-90" y="-370" as="targetPoint" />
          </mxGeometry>
        </mxCell>
        <mxCell id="CB8Sl7y3f9_4LkdyxGWz-6" value="Response" style="edgeLabel;html=1;align=center;verticalAlign=middle;resizable=0;points=[];" parent="CB8Sl7y3f9_4LkdyxGWz-5" vertex="1" connectable="0">
          <mxGeometry x="-0.3434" y="1" relative="1" as="geometry">
            <mxPoint x="54" y="-11" as="offset" />
          </mxGeometry>
        </mxCell>
        <mxCell id="CB8Sl7y3f9_4LkdyxGWz-14" value="" style="edgeStyle=none;rounded=0;orthogonalLoop=1;jettySize=auto;html=1;exitX=1.176;exitY=0.2;exitDx=0;exitDy=0;exitPerimeter=0;entryX=0.033;entryY=0.167;entryDx=0;entryDy=0;entryPerimeter=0;" parent="DFpaLJx0KEZfhMfiUNPI-1" source="CB8Sl7y3f9_4LkdyxGWz-13" target="CB8Sl7y3f9_4LkdyxGWz-18" edge="1">
          <mxGeometry relative="1" as="geometry">
            <mxPoint x="-460" y="-250" as="sourcePoint" />
            <mxPoint x="-380" y="-268" as="targetPoint" />
          </mxGeometry>
        </mxCell>
        <mxCell id="CB8Sl7y3f9_4LkdyxGWz-15" value="PULL" style="edgeLabel;html=1;align=center;verticalAlign=middle;resizable=0;points=[];" parent="CB8Sl7y3f9_4LkdyxGWz-14" vertex="1" connectable="0">
          <mxGeometry x="-0.3434" y="1" relative="1" as="geometry">
            <mxPoint x="-65" y="-11" as="offset" />
          </mxGeometry>
        </mxCell>
        <mxCell id="CB8Sl7y3f9_4LkdyxGWz-16" value="" style="endArrow=classic;html=1;rounded=0;exitX=-0.07;exitY=0.907;exitDx=0;exitDy=0;exitPerimeter=0;entryX=1.124;entryY=0.915;entryDx=0;entryDy=0;entryPerimeter=0;" parent="DFpaLJx0KEZfhMfiUNPI-1" source="CB8Sl7y3f9_4LkdyxGWz-18" target="CB8Sl7y3f9_4LkdyxGWz-13" edge="1">
          <mxGeometry width="50" height="50" relative="1" as="geometry">
            <mxPoint x="-260" y="-220" as="sourcePoint" />
            <mxPoint x="-440" y="-235.2" as="targetPoint" />
          </mxGeometry>
        </mxCell>
        <mxCell id="CB8Sl7y3f9_4LkdyxGWz-19" value="Response" style="edgeLabel;html=1;align=center;verticalAlign=middle;resizable=0;points=[];" parent="CB8Sl7y3f9_4LkdyxGWz-16" vertex="1" connectable="0">
          <mxGeometry x="-0.9016" y="1" relative="1" as="geometry">
            <mxPoint x="-16" y="-12" as="offset" />
          </mxGeometry>
        </mxCell>
      </root>
    </mxGraphModel>
  </diagram>
  <diagram id="hVQ6xO76c7vsi_Zf0ho7" name="Page-4">
    <mxGraphModel dx="1347" dy="1602" grid="0" gridSize="10" guides="1" tooltips="1" connect="1" arrows="1" fold="1" page="0" pageScale="1" pageWidth="827" pageHeight="1169" math="0" shadow="0">
      <root>
        <mxCell id="G6cySKqPKxWfIRrgHfy4-0" />
        <mxCell id="G6cySKqPKxWfIRrgHfy4-1" parent="G6cySKqPKxWfIRrgHfy4-0" />
        <mxCell id="G6cySKqPKxWfIRrgHfy4-2" value="上级平台" style="shape=umlLifeline;perimeter=lifelinePerimeter;whiteSpace=wrap;html=1;container=1;collapsible=0;recursiveResize=0;outlineConnect=0;" parent="G6cySKqPKxWfIRrgHfy4-1" vertex="1">
          <mxGeometry x="234" y="-770" width="100" height="392" as="geometry" />
        </mxCell>
        <mxCell id="G6cySKqPKxWfIRrgHfy4-3" value="" style="html=1;points=[];perimeter=orthogonalPerimeter;" parent="G6cySKqPKxWfIRrgHfy4-2" vertex="1">
          <mxGeometry x="45" y="119.99999999999999" width="10" height="28" as="geometry" />
        </mxCell>
        <mxCell id="G6cySKqPKxWfIRrgHfy4-9" value="" style="html=1;points=[];perimeter=orthogonalPerimeter;" parent="G6cySKqPKxWfIRrgHfy4-2" vertex="1">
          <mxGeometry x="45" y="240" width="10" height="28" as="geometry" />
        </mxCell>
        <mxCell id="G6cySKqPKxWfIRrgHfy4-10" value="" style="edgeStyle=none;rounded=0;orthogonalLoop=1;jettySize=auto;html=1;exitX=0;exitY=0.15;exitDx=0;exitDy=0;exitPerimeter=0;entryX=0.995;entryY=0.043;entryDx=0;entryDy=0;entryPerimeter=0;" parent="G6cySKqPKxWfIRrgHfy4-2" target="G6cySKqPKxWfIRrgHfy4-9" edge="1">
          <mxGeometry relative="1" as="geometry">
            <mxPoint x="305" y="242.41499999999996" as="sourcePoint" />
            <mxPoint x="50" y="232" as="targetPoint" />
          </mxGeometry>
        </mxCell>
        <mxCell id="G6cySKqPKxWfIRrgHfy4-11" value="汇聚数据" style="edgeLabel;html=1;align=center;verticalAlign=middle;resizable=0;points=[];" parent="G6cySKqPKxWfIRrgHfy4-10" vertex="1" connectable="0">
          <mxGeometry x="-0.3434" y="1" relative="1" as="geometry">
            <mxPoint x="54" y="-11" as="offset" />
          </mxGeometry>
        </mxCell>
        <mxCell id="G6cySKqPKxWfIRrgHfy4-12" value="" style="endArrow=classic;html=1;rounded=0;exitX=1.09;exitY=0.859;exitDx=0;exitDy=0;exitPerimeter=0;entryX=-0.023;entryY=0.859;entryDx=0;entryDy=0;entryPerimeter=0;" parent="G6cySKqPKxWfIRrgHfy4-2" source="G6cySKqPKxWfIRrgHfy4-9" edge="1">
          <mxGeometry width="50" height="50" relative="1" as="geometry">
            <mxPoint x="170" y="280" as="sourcePoint" />
            <mxPoint x="304.77" y="264.0519999999999" as="targetPoint" />
          </mxGeometry>
        </mxCell>
        <mxCell id="G6cySKqPKxWfIRrgHfy4-13" value="ACK" style="edgeLabel;html=1;align=center;verticalAlign=middle;resizable=0;points=[];" parent="G6cySKqPKxWfIRrgHfy4-12" vertex="1" connectable="0">
          <mxGeometry x="-0.0876" y="-2" relative="1" as="geometry">
            <mxPoint x="-89" y="-12" as="offset" />
          </mxGeometry>
        </mxCell>
        <mxCell id="G6cySKqPKxWfIRrgHfy4-14" value="" style="endArrow=none;dashed=1;html=1;rounded=0;" parent="G6cySKqPKxWfIRrgHfy4-1" edge="1">
          <mxGeometry width="50" height="50" relative="1" as="geometry">
            <mxPoint x="234" y="-698" as="sourcePoint" />
            <mxPoint x="594.0000000000002" y="-698" as="targetPoint" />
            <Array as="points" />
          </mxGeometry>
        </mxCell>
        <mxCell id="G6cySKqPKxWfIRrgHfy4-15" value="下级平台" style="shape=umlLifeline;perimeter=lifelinePerimeter;whiteSpace=wrap;html=1;container=1;collapsible=0;recursiveResize=0;outlineConnect=0;" parent="G6cySKqPKxWfIRrgHfy4-1" vertex="1">
          <mxGeometry x="494" y="-770" width="100" height="392" as="geometry" />
        </mxCell>
        <mxCell id="G6cySKqPKxWfIRrgHfy4-16" value="" style="html=1;points=[];perimeter=orthogonalPerimeter;" parent="G6cySKqPKxWfIRrgHfy4-15" vertex="1">
          <mxGeometry x="45" y="120" width="10" height="28" as="geometry" />
        </mxCell>
        <mxCell id="G6cySKqPKxWfIRrgHfy4-17" value="" style="html=1;points=[];perimeter=orthogonalPerimeter;" parent="G6cySKqPKxWfIRrgHfy4-15" vertex="1">
          <mxGeometry x="45" y="240" width="10" height="28" as="geometry" />
        </mxCell>
        <mxCell id="G6cySKqPKxWfIRrgHfy4-19" value="" style="edgeStyle=none;rounded=0;orthogonalLoop=1;jettySize=auto;html=1;exitX=0;exitY=0.15;exitDx=0;exitDy=0;exitPerimeter=0;entryX=0.995;entryY=0.043;entryDx=0;entryDy=0;entryPerimeter=0;" parent="G6cySKqPKxWfIRrgHfy4-1" target="G6cySKqPKxWfIRrgHfy4-3" edge="1">
          <mxGeometry relative="1" as="geometry">
            <mxPoint x="539" y="-647.585" as="sourcePoint" />
            <mxPoint x="284" y="-658" as="targetPoint" />
          </mxGeometry>
        </mxCell>
        <mxCell id="G6cySKqPKxWfIRrgHfy4-20" value="汇聚数据" style="edgeLabel;html=1;align=center;verticalAlign=middle;resizable=0;points=[];" parent="G6cySKqPKxWfIRrgHfy4-19" vertex="1" connectable="0">
          <mxGeometry x="-0.3434" y="1" relative="1" as="geometry">
            <mxPoint x="54" y="-11" as="offset" />
          </mxGeometry>
        </mxCell>
        <mxCell id="G6cySKqPKxWfIRrgHfy4-21" value="" style="endArrow=none;dashed=1;html=1;rounded=0;" parent="G6cySKqPKxWfIRrgHfy4-1" edge="1">
          <mxGeometry width="50" height="50" relative="1" as="geometry">
            <mxPoint x="234" y="-575" as="sourcePoint" />
            <mxPoint x="594.0000000000002" y="-575" as="targetPoint" />
            <Array as="points" />
          </mxGeometry>
        </mxCell>
        <mxCell id="G6cySKqPKxWfIRrgHfy4-22" value="" style="endArrow=none;dashed=1;html=1;rounded=0;" parent="G6cySKqPKxWfIRrgHfy4-1" edge="1">
          <mxGeometry width="50" height="50" relative="1" as="geometry">
            <mxPoint x="234" y="-455" as="sourcePoint" />
            <mxPoint x="594.0000000000002" y="-455" as="targetPoint" />
            <Array as="points" />
          </mxGeometry>
        </mxCell>
        <mxCell id="G6cySKqPKxWfIRrgHfy4-23" value="" style="endArrow=classic;html=1;rounded=0;exitX=1.09;exitY=0.859;exitDx=0;exitDy=0;exitPerimeter=0;entryX=-0.023;entryY=0.859;entryDx=0;entryDy=0;entryPerimeter=0;" parent="G6cySKqPKxWfIRrgHfy4-1" source="G6cySKqPKxWfIRrgHfy4-3" edge="1">
          <mxGeometry width="50" height="50" relative="1" as="geometry">
            <mxPoint x="404" y="-610" as="sourcePoint" />
            <mxPoint x="538.77" y="-625.9480000000001" as="targetPoint" />
          </mxGeometry>
        </mxCell>
        <mxCell id="G6cySKqPKxWfIRrgHfy4-24" value="ACK" style="edgeLabel;html=1;align=center;verticalAlign=middle;resizable=0;points=[];" parent="G6cySKqPKxWfIRrgHfy4-23" vertex="1" connectable="0">
          <mxGeometry x="-0.0876" y="-2" relative="1" as="geometry">
            <mxPoint x="-89" y="-12" as="offset" />
          </mxGeometry>
        </mxCell>
        <mxCell id="R41c7H0KdIJZa5yrkZOM-0" value="" style="rounded=0;whiteSpace=wrap;html=1;sketch=0;fillColor=#dae8fc;strokeColor=#000000;" parent="G6cySKqPKxWfIRrgHfy4-1" vertex="1">
          <mxGeometry x="305" y="274" width="120" height="133" as="geometry" />
        </mxCell>
        <mxCell id="R41c7H0KdIJZa5yrkZOM-7" value="peak_pps" style="rounded=0;whiteSpace=wrap;html=1;sketch=0;strokeColor=#000000;fillColor=none;" parent="G6cySKqPKxWfIRrgHfy4-1" vertex="1">
          <mxGeometry x="305" y="374" width="120" height="33" as="geometry" />
        </mxCell>
        <mxCell id="R41c7H0KdIJZa5yrkZOM-8" value="peak_bps" style="rounded=0;whiteSpace=wrap;html=1;sketch=0;strokeColor=#000000;fillColor=none;" parent="G6cySKqPKxWfIRrgHfy4-1" vertex="1">
          <mxGeometry x="305" y="341" width="120" height="33" as="geometry" />
        </mxCell>
        <mxCell id="R41c7H0KdIJZa5yrkZOM-9" value="pkt_bytes" style="rounded=0;whiteSpace=wrap;html=1;sketch=0;strokeColor=#000000;fillColor=none;" parent="G6cySKqPKxWfIRrgHfy4-1" vertex="1">
          <mxGeometry x="305" y="308" width="120" height="33" as="geometry" />
        </mxCell>
        <mxCell id="R41c7H0KdIJZa5yrkZOM-10" value="pkt_count" style="rounded=0;whiteSpace=wrap;html=1;sketch=0;strokeColor=#000000;fillColor=none;" parent="G6cySKqPKxWfIRrgHfy4-1" vertex="1">
          <mxGeometry x="305" y="274" width="120" height="34" as="geometry" />
        </mxCell>
        <mxCell id="R41c7H0KdIJZa5yrkZOM-24" value="..." style="rounded=0;whiteSpace=wrap;html=1;sketch=0;strokeColor=#000000;fillColor=none;" parent="G6cySKqPKxWfIRrgHfy4-1" vertex="1">
          <mxGeometry x="305" y="407" width="120" height="20" as="geometry" />
        </mxCell>
        <mxCell id="R41c7H0KdIJZa5yrkZOM-25" value="" style="endArrow=none;dashed=1;html=1;sketch=0;curved=0;strokeWidth=1;jumpSize=8;" parent="G6cySKqPKxWfIRrgHfy4-1" edge="1">
          <mxGeometry width="50" height="50" relative="1" as="geometry">
            <mxPoint x="193" y="407" as="sourcePoint" />
            <mxPoint x="305" y="407" as="targetPoint" />
          </mxGeometry>
        </mxCell>
        <mxCell id="R41c7H0KdIJZa5yrkZOM-26" value="traffic_verify" style="text;html=1;strokeColor=none;fillColor=none;align=right;verticalAlign=middle;whiteSpace=wrap;rounded=0;sketch=0;strokeWidth=1;fontSize=12;" parent="G6cySKqPKxWfIRrgHfy4-1" vertex="1">
          <mxGeometry x="204" y="332" width="95" height="17" as="geometry" />
        </mxCell>
        <mxCell id="Gnx_A-ZZGSzYn7AsSHXp-0" value="..." style="rounded=0;whiteSpace=wrap;html=1;sketch=0;strokeColor=#000000;fillColor=none;" parent="G6cySKqPKxWfIRrgHfy4-1" vertex="1">
          <mxGeometry x="305" y="427" width="120" height="20" as="geometry" />
        </mxCell>
        <mxCell id="Gnx_A-ZZGSzYn7AsSHXp-1" value="..." style="rounded=0;whiteSpace=wrap;html=1;sketch=0;strokeColor=#000000;fillColor=none;" parent="G6cySKqPKxWfIRrgHfy4-1" vertex="1">
          <mxGeometry x="305" y="447" width="120" height="20" as="geometry" />
        </mxCell>
        <mxCell id="Gnx_A-ZZGSzYn7AsSHXp-2" value="..." style="rounded=0;whiteSpace=wrap;html=1;sketch=0;strokeColor=#000000;fillColor=none;" parent="G6cySKqPKxWfIRrgHfy4-1" vertex="1">
          <mxGeometry x="305" y="467" width="120" height="20" as="geometry" />
        </mxCell>
        <mxCell id="Gnx_A-ZZGSzYn7AsSHXp-3" value="..." style="rounded=0;whiteSpace=wrap;html=1;sketch=0;strokeColor=#000000;fillColor=none;" parent="G6cySKqPKxWfIRrgHfy4-1" vertex="1">
          <mxGeometry x="305" y="487" width="120" height="20" as="geometry" />
        </mxCell>
        <mxCell id="Gnx_A-ZZGSzYn7AsSHXp-4" value="..." style="rounded=0;whiteSpace=wrap;html=1;sketch=0;strokeColor=#000000;fillColor=none;" parent="G6cySKqPKxWfIRrgHfy4-1" vertex="1">
          <mxGeometry x="305" y="507" width="120" height="20" as="geometry" />
        </mxCell>
        <mxCell id="Gnx_A-ZZGSzYn7AsSHXp-5" value="" style="endArrow=none;dashed=1;html=1;sketch=0;curved=0;strokeWidth=1;jumpSize=8;" parent="G6cySKqPKxWfIRrgHfy4-1" edge="1">
          <mxGeometry width="50" height="50" relative="1" as="geometry">
            <mxPoint x="193" y="427" as="sourcePoint" />
            <mxPoint x="305" y="427" as="targetPoint" />
          </mxGeometry>
        </mxCell>
        <mxCell id="Gnx_A-ZZGSzYn7AsSHXp-6" value="" style="endArrow=none;dashed=1;html=1;sketch=0;curved=0;strokeWidth=1;jumpSize=8;" parent="G6cySKqPKxWfIRrgHfy4-1" edge="1">
          <mxGeometry width="50" height="50" relative="1" as="geometry">
            <mxPoint x="193" y="447" as="sourcePoint" />
            <mxPoint x="305" y="447" as="targetPoint" />
          </mxGeometry>
        </mxCell>
        <mxCell id="Gnx_A-ZZGSzYn7AsSHXp-7" value="" style="endArrow=none;dashed=1;html=1;sketch=0;curved=0;strokeWidth=1;jumpSize=8;" parent="G6cySKqPKxWfIRrgHfy4-1" edge="1">
          <mxGeometry width="50" height="50" relative="1" as="geometry">
            <mxPoint x="193" y="467" as="sourcePoint" />
            <mxPoint x="305" y="467" as="targetPoint" />
          </mxGeometry>
        </mxCell>
        <mxCell id="Gnx_A-ZZGSzYn7AsSHXp-8" value="" style="endArrow=none;dashed=1;html=1;sketch=0;curved=0;strokeWidth=1;jumpSize=8;" parent="G6cySKqPKxWfIRrgHfy4-1" edge="1">
          <mxGeometry width="50" height="50" relative="1" as="geometry">
            <mxPoint x="193" y="487" as="sourcePoint" />
            <mxPoint x="305" y="486.81" as="targetPoint" />
          </mxGeometry>
        </mxCell>
        <mxCell id="Gnx_A-ZZGSzYn7AsSHXp-9" value="" style="endArrow=none;dashed=1;html=1;sketch=0;curved=0;strokeWidth=1;jumpSize=8;" parent="G6cySKqPKxWfIRrgHfy4-1" edge="1">
          <mxGeometry width="50" height="50" relative="1" as="geometry">
            <mxPoint x="193" y="507" as="sourcePoint" />
            <mxPoint x="305" y="507" as="targetPoint" />
          </mxGeometry>
        </mxCell>
        <mxCell id="Gnx_A-ZZGSzYn7AsSHXp-12" value="traffic_success" style="text;html=1;strokeColor=none;fillColor=none;align=right;verticalAlign=middle;whiteSpace=wrap;rounded=0;sketch=0;strokeWidth=1;fontSize=12;" parent="G6cySKqPKxWfIRrgHfy4-1" vertex="1">
          <mxGeometry x="194" y="408.5" width="105" height="17" as="geometry" />
        </mxCell>
        <mxCell id="Gnx_A-ZZGSzYn7AsSHXp-13" value="traffic_error" style="text;html=1;strokeColor=none;fillColor=none;align=right;verticalAlign=middle;whiteSpace=wrap;rounded=0;sketch=0;strokeWidth=1;fontSize=12;" parent="G6cySKqPKxWfIRrgHfy4-1" vertex="1">
          <mxGeometry x="200" y="428.5" width="99" height="17" as="geometry" />
        </mxCell>
        <mxCell id="Gnx_A-ZZGSzYn7AsSHXp-14" value="traffic_nocolor" style="text;html=1;strokeColor=none;fillColor=none;align=right;verticalAlign=middle;whiteSpace=wrap;rounded=0;sketch=0;strokeWidth=1;fontSize=12;" parent="G6cySKqPKxWfIRrgHfy4-1" vertex="1">
          <mxGeometry x="201" y="448.5" width="98" height="17" as="geometry" />
        </mxCell>
        <mxCell id="Gnx_A-ZZGSzYn7AsSHXp-15" value="traffic_invalid_factor" style="text;html=1;strokeColor=none;fillColor=none;align=right;verticalAlign=middle;whiteSpace=wrap;rounded=0;sketch=0;strokeWidth=1;fontSize=12;" parent="G6cySKqPKxWfIRrgHfy4-1" vertex="1">
          <mxGeometry x="186" y="468.5" width="113" height="17" as="geometry" />
        </mxCell>
        <mxCell id="Gnx_A-ZZGSzYn7AsSHXp-16" value="traffic_err_area" style="text;html=1;strokeColor=none;fillColor=none;align=right;verticalAlign=middle;whiteSpace=wrap;rounded=0;sketch=0;strokeWidth=1;fontSize=12;" parent="G6cySKqPKxWfIRrgHfy4-1" vertex="1">
          <mxGeometry x="190" y="488.5" width="109" height="17" as="geometry" />
        </mxCell>
        <mxCell id="Gnx_A-ZZGSzYn7AsSHXp-17" value="traffic_err_province" style="text;html=1;strokeColor=none;fillColor=none;align=right;verticalAlign=middle;whiteSpace=wrap;rounded=0;sketch=0;strokeWidth=1;fontSize=12;" parent="G6cySKqPKxWfIRrgHfy4-1" vertex="1">
          <mxGeometry x="193" y="508.5" width="106" height="17" as="geometry" />
        </mxCell>
        <mxCell id="Gnx_A-ZZGSzYn7AsSHXp-21" value="..." style="rounded=0;whiteSpace=wrap;html=1;sketch=0;strokeColor=#000000;fillColor=none;" parent="G6cySKqPKxWfIRrgHfy4-1" vertex="1">
          <mxGeometry x="305" y="527" width="120" height="23" as="geometry" />
        </mxCell>
        <mxCell id="Gnx_A-ZZGSzYn7AsSHXp-41" value="..." style="rounded=0;whiteSpace=wrap;html=1;sketch=0;strokeColor=#000000;fillColor=none;" parent="G6cySKqPKxWfIRrgHfy4-1" vertex="1">
          <mxGeometry x="305" y="573" width="120" height="23" as="geometry" />
        </mxCell>
        <mxCell id="Gnx_A-ZZGSzYn7AsSHXp-42" value="..." style="rounded=0;whiteSpace=wrap;html=1;sketch=0;strokeColor=#000000;fillColor=none;" parent="G6cySKqPKxWfIRrgHfy4-1" vertex="1">
          <mxGeometry x="305" y="596" width="120" height="23" as="geometry" />
        </mxCell>
        <mxCell id="Gnx_A-ZZGSzYn7AsSHXp-44" value="..." style="rounded=0;whiteSpace=wrap;html=1;sketch=0;strokeColor=#000000;fillColor=none;" parent="G6cySKqPKxWfIRrgHfy4-1" vertex="1">
          <mxGeometry x="305" y="619" width="120" height="23" as="geometry" />
        </mxCell>
        <mxCell id="Gnx_A-ZZGSzYn7AsSHXp-45" value="..." style="rounded=0;whiteSpace=wrap;html=1;sketch=0;strokeColor=#000000;fillColor=none;" parent="G6cySKqPKxWfIRrgHfy4-1" vertex="1">
          <mxGeometry x="305" y="642" width="120" height="23" as="geometry" />
        </mxCell>
        <mxCell id="Gnx_A-ZZGSzYn7AsSHXp-46" value="..." style="rounded=0;whiteSpace=wrap;html=1;sketch=0;strokeColor=#000000;fillColor=none;" parent="G6cySKqPKxWfIRrgHfy4-1" vertex="1">
          <mxGeometry x="305" y="665" width="120" height="23" as="geometry" />
        </mxCell>
        <mxCell id="Gnx_A-ZZGSzYn7AsSHXp-47" value="..." style="rounded=0;whiteSpace=wrap;html=1;sketch=0;strokeColor=#000000;fillColor=none;" parent="G6cySKqPKxWfIRrgHfy4-1" vertex="1">
          <mxGeometry x="305" y="688" width="120" height="23" as="geometry" />
        </mxCell>
        <mxCell id="Gnx_A-ZZGSzYn7AsSHXp-49" value="" style="endArrow=none;dashed=1;html=1;sketch=0;curved=0;strokeWidth=1;jumpSize=8;" parent="G6cySKqPKxWfIRrgHfy4-1" edge="1">
          <mxGeometry width="50" height="50" relative="1" as="geometry">
            <mxPoint x="425" y="619" as="sourcePoint" />
            <mxPoint x="530" y="619" as="targetPoint" />
          </mxGeometry>
        </mxCell>
        <mxCell id="Gnx_A-ZZGSzYn7AsSHXp-50" value="" style="endArrow=none;dashed=1;html=1;sketch=0;curved=0;strokeWidth=1;jumpSize=8;" parent="G6cySKqPKxWfIRrgHfy4-1" edge="1">
          <mxGeometry width="50" height="50" relative="1" as="geometry">
            <mxPoint x="425" y="642" as="sourcePoint" />
            <mxPoint x="530" y="642" as="targetPoint" />
          </mxGeometry>
        </mxCell>
        <mxCell id="Gnx_A-ZZGSzYn7AsSHXp-52" value="" style="endArrow=none;dashed=1;html=1;sketch=0;curved=0;strokeWidth=1;jumpSize=8;" parent="G6cySKqPKxWfIRrgHfy4-1" edge="1">
          <mxGeometry width="50" height="50" relative="1" as="geometry">
            <mxPoint x="425" y="688" as="sourcePoint" />
            <mxPoint x="530" y="688" as="targetPoint" />
          </mxGeometry>
        </mxCell>
        <mxCell id="Gnx_A-ZZGSzYn7AsSHXp-53" value="" style="endArrow=none;dashed=1;html=1;sketch=0;curved=0;strokeWidth=1;jumpSize=8;" parent="G6cySKqPKxWfIRrgHfy4-1" edge="1">
          <mxGeometry width="50" height="50" relative="1" as="geometry">
            <mxPoint x="425" y="711" as="sourcePoint" />
            <mxPoint x="530" y="711" as="targetPoint" />
          </mxGeometry>
        </mxCell>
        <mxCell id="Gnx_A-ZZGSzYn7AsSHXp-60" value="..." style="rounded=0;whiteSpace=wrap;html=1;sketch=0;strokeColor=#000000;fillColor=none;" parent="G6cySKqPKxWfIRrgHfy4-1" vertex="1">
          <mxGeometry x="305" y="711" width="120" height="23" as="geometry" />
        </mxCell>
        <mxCell id="Gnx_A-ZZGSzYn7AsSHXp-67" value="&lt;span style=&quot;color: rgb(0 , 0 , 0) ; font-family: &amp;#34;helvetica&amp;#34; ; font-size: 14px ; font-style: normal ; font-weight: 400 ; letter-spacing: normal ; text-align: center ; text-indent: 0px ; text-transform: none ; word-spacing: 0px ; background-color: rgb(248 , 249 , 250) ; display: inline ; float: none&quot;&gt;Area0&lt;/span&gt;" style="text;whiteSpace=wrap;html=1;fontSize=14;" parent="G6cySKqPKxWfIRrgHfy4-1" vertex="1">
          <mxGeometry x="430" y="394.5" width="44" height="31" as="geometry" />
        </mxCell>
        <mxCell id="Gnx_A-ZZGSzYn7AsSHXp-68" value="染色统计流量" style="text;html=1;strokeColor=none;fillColor=none;align=center;verticalAlign=middle;whiteSpace=wrap;rounded=0;sketch=0;fontSize=14;" parent="G6cySKqPKxWfIRrgHfy4-1" vertex="1">
          <mxGeometry x="574" y="193" width="21" height="30" as="geometry" />
        </mxCell>
        <mxCell id="Gnx_A-ZZGSzYn7AsSHXp-72" value="脱色、验色统计流量" style="text;html=1;strokeColor=none;fillColor=none;align=center;verticalAlign=middle;whiteSpace=wrap;rounded=0;sketch=0;fontSize=14;" parent="G6cySKqPKxWfIRrgHfy4-1" vertex="1">
          <mxGeometry x="547" y="482" width="75" height="30" as="geometry" />
        </mxCell>
        <mxCell id="ktZp4E5nmqN6KPojNA9Z-4" value="peak_pps" style="rounded=0;whiteSpace=wrap;html=1;sketch=0;fillColor=#dae8fc;strokeColor=#000000;" parent="G6cySKqPKxWfIRrgHfy4-1" vertex="1">
          <mxGeometry x="305" y="241" width="120" height="33" as="geometry" />
        </mxCell>
        <mxCell id="ktZp4E5nmqN6KPojNA9Z-5" value="peak_bps" style="rounded=0;whiteSpace=wrap;html=1;sketch=0;fillColor=#dae8fc;strokeColor=#000000;" parent="G6cySKqPKxWfIRrgHfy4-1" vertex="1">
          <mxGeometry x="305" y="208" width="120" height="33" as="geometry" />
        </mxCell>
        <mxCell id="ktZp4E5nmqN6KPojNA9Z-10" value="" style="endArrow=none;dashed=1;html=1;sketch=0;curved=0;strokeWidth=1;jumpSize=8;" parent="G6cySKqPKxWfIRrgHfy4-1" edge="1">
          <mxGeometry width="50" height="50" relative="1" as="geometry">
            <mxPoint x="428" y="140.30999999999977" as="sourcePoint" />
            <mxPoint x="622.0000000000002" y="140.30999999999977" as="targetPoint" />
          </mxGeometry>
        </mxCell>
        <mxCell id="ktZp4E5nmqN6KPojNA9Z-11" value="" style="endArrow=none;dashed=1;html=1;sketch=0;curved=0;strokeWidth=1;jumpSize=8;" parent="G6cySKqPKxWfIRrgHfy4-1" edge="1">
          <mxGeometry width="50" height="50" relative="1" as="geometry">
            <mxPoint x="425" y="273.5999999999998" as="sourcePoint" />
            <mxPoint x="619.0000000000002" y="273.5999999999998" as="targetPoint" />
          </mxGeometry>
        </mxCell>
        <mxCell id="ktZp4E5nmqN6KPojNA9Z-12" value="" style="endArrow=none;dashed=1;html=1;sketch=0;curved=0;strokeWidth=1;jumpSize=8;" parent="G6cySKqPKxWfIRrgHfy4-1" edge="1">
          <mxGeometry width="50" height="50" relative="1" as="geometry">
            <mxPoint x="425" y="550" as="sourcePoint" />
            <mxPoint x="530" y="550" as="targetPoint" />
          </mxGeometry>
        </mxCell>
        <mxCell id="ktZp4E5nmqN6KPojNA9Z-13" value="" style="endArrow=none;dashed=1;html=1;sketch=0;curved=0;strokeWidth=1;jumpSize=8;" parent="G6cySKqPKxWfIRrgHfy4-1" edge="1">
          <mxGeometry width="50" height="50" relative="1" as="geometry">
            <mxPoint x="424" y="596" as="sourcePoint" />
            <mxPoint x="529" y="596" as="targetPoint" />
          </mxGeometry>
        </mxCell>
        <mxCell id="ktZp4E5nmqN6KPojNA9Z-14" value="" style="endArrow=none;dashed=1;html=1;sketch=0;curved=0;strokeWidth=1;jumpSize=8;" parent="G6cySKqPKxWfIRrgHfy4-1" edge="1">
          <mxGeometry width="50" height="50" relative="1" as="geometry">
            <mxPoint x="425" y="573.0000000000001" as="sourcePoint" />
            <mxPoint x="530" y="573.0000000000001" as="targetPoint" />
          </mxGeometry>
        </mxCell>
        <mxCell id="ktZp4E5nmqN6KPojNA9Z-15" value="start_time" style="rounded=0;whiteSpace=wrap;html=1;sketch=0;fillColor=#dae8fc;strokeColor=#000000;" parent="G6cySKqPKxWfIRrgHfy4-1" vertex="1">
          <mxGeometry x="305" y="39" width="120" height="34" as="geometry" />
        </mxCell>
        <mxCell id="ktZp4E5nmqN6KPojNA9Z-16" value="end_time" style="rounded=0;whiteSpace=wrap;html=1;sketch=0;fillColor=#dae8fc;strokeColor=#000000;" parent="G6cySKqPKxWfIRrgHfy4-1" vertex="1">
          <mxGeometry x="305" y="73" width="120" height="34" as="geometry" />
        </mxCell>
        <mxCell id="ktZp4E5nmqN6KPojNA9Z-17" value="sn" style="rounded=0;whiteSpace=wrap;html=1;sketch=0;fillColor=#dae8fc;strokeColor=#000000;" parent="G6cySKqPKxWfIRrgHfy4-1" vertex="1">
          <mxGeometry x="305" y="107" width="120" height="34" as="geometry" />
        </mxCell>
        <mxCell id="ktZp4E5nmqN6KPojNA9Z-18" value="pkt_count" style="rounded=0;whiteSpace=wrap;html=1;sketch=0;fillColor=#dae8fc;strokeColor=#000000;" parent="G6cySKqPKxWfIRrgHfy4-1" vertex="1">
          <mxGeometry x="305" y="141" width="120" height="34" as="geometry" />
        </mxCell>
        <mxCell id="ktZp4E5nmqN6KPojNA9Z-19" value="pkt_bytes" style="rounded=0;whiteSpace=wrap;html=1;sketch=0;fillColor=#dae8fc;strokeColor=#000000;" parent="G6cySKqPKxWfIRrgHfy4-1" vertex="1">
          <mxGeometry x="305" y="175" width="120" height="33" as="geometry" />
        </mxCell>
        <mxCell id="ktZp4E5nmqN6KPojNA9Z-20" value="&lt;div style=&quot;text-align: center&quot;&gt;&lt;font face=&quot;helvetica&quot; size=&quot;1&quot;&gt;&lt;span style=&quot;background-color: rgb(248 , 249 , 250)&quot;&gt;...&lt;/span&gt;&lt;/font&gt;&lt;/div&gt;" style="text;whiteSpace=wrap;html=1;fontSize=14;" parent="G6cySKqPKxWfIRrgHfy4-1" vertex="1">
          <mxGeometry x="459" y="545" width="21" height="24" as="geometry" />
        </mxCell>
        <mxCell id="Joee7rpWkr5k_gk70-ra-0" value="&lt;span style=&quot;color: rgb(0 , 0 , 0) ; font-family: &amp;#34;helvetica&amp;#34; ; font-size: 14px ; font-style: normal ; font-weight: 400 ; letter-spacing: normal ; text-align: center ; text-indent: 0px ; text-transform: none ; word-spacing: 0px ; background-color: rgb(248 , 249 , 250) ; display: inline ; float: none&quot;&gt;Area Max-1&lt;/span&gt;" style="text;whiteSpace=wrap;html=1;fontSize=14;" parent="G6cySKqPKxWfIRrgHfy4-1" vertex="1">
          <mxGeometry x="430" y="569" width="83" height="31" as="geometry" />
        </mxCell>
        <mxCell id="Joee7rpWkr5k_gk70-ra-1" value="&lt;span style=&quot;color: rgb(0 , 0 , 0) ; font-family: &amp;#34;helvetica&amp;#34; ; font-size: 14px ; font-style: normal ; font-weight: 400 ; letter-spacing: normal ; text-align: center ; text-indent: 0px ; text-transform: none ; word-spacing: 0px ; background-color: rgb(248 , 249 , 250) ; display: inline ; float: none&quot;&gt;Province Max-1&lt;/span&gt;" style="text;whiteSpace=wrap;html=1;fontSize=14;" parent="G6cySKqPKxWfIRrgHfy4-1" vertex="1">
          <mxGeometry x="430" y="640" width="138" height="22" as="geometry" />
        </mxCell>
        <mxCell id="Joee7rpWkr5k_gk70-ra-3" value="&lt;span style=&quot;color: rgb(0 , 0 , 0) ; font-family: &amp;#34;helvetica&amp;#34; ; font-size: 14px ; font-style: normal ; font-weight: 400 ; letter-spacing: normal ; text-align: center ; text-indent: 0px ; text-transform: none ; word-spacing: 0px ; background-color: rgb(248 , 249 , 250) ; display: inline ; float: none&quot;&gt;Industry Max-1&lt;/span&gt;" style="text;whiteSpace=wrap;html=1;fontSize=14;" parent="G6cySKqPKxWfIRrgHfy4-1" vertex="1">
          <mxGeometry x="430" y="707" width="102" height="21" as="geometry" />
        </mxCell>
        <mxCell id="Joee7rpWkr5k_gk70-ra-4" value="" style="endArrow=none;dashed=1;html=1;sketch=0;curved=0;strokeWidth=1;jumpSize=8;" parent="G6cySKqPKxWfIRrgHfy4-1" edge="1">
          <mxGeometry width="50" height="50" relative="1" as="geometry">
            <mxPoint x="425" y="665" as="sourcePoint" />
            <mxPoint x="530" y="665" as="targetPoint" />
          </mxGeometry>
        </mxCell>
        <mxCell id="Joee7rpWkr5k_gk70-ra-5" value="&lt;div style=&quot;text-align: center&quot;&gt;&lt;font face=&quot;helvetica&quot; size=&quot;1&quot;&gt;&lt;span style=&quot;background-color: rgb(248 , 249 , 250)&quot;&gt;...&lt;/span&gt;&lt;/font&gt;&lt;/div&gt;" style="text;whiteSpace=wrap;html=1;fontSize=14;" parent="G6cySKqPKxWfIRrgHfy4-1" vertex="1">
          <mxGeometry x="458" y="612" width="21" height="24" as="geometry" />
        </mxCell>
        <mxCell id="Joee7rpWkr5k_gk70-ra-6" value="&lt;div style=&quot;text-align: center ; font-size: 10px&quot;&gt;...&lt;/div&gt;" style="text;whiteSpace=wrap;html=1;fontSize=14;" parent="G6cySKqPKxWfIRrgHfy4-1" vertex="1">
          <mxGeometry x="458" y="685" width="21" height="16" as="geometry" />
        </mxCell>
        <mxCell id="Joee7rpWkr5k_gk70-ra-7" value="&lt;span style=&quot;color: rgb(0 , 0 , 0) ; font-family: &amp;#34;helvetica&amp;#34; ; font-size: 14px ; font-style: normal ; font-weight: 400 ; letter-spacing: normal ; text-align: center ; text-indent: 0px ; text-transform: none ; word-spacing: 0px ; background-color: rgb(248 , 249 , 250) ; display: inline ; float: none&quot;&gt;Industry0&lt;/span&gt;" style="text;whiteSpace=wrap;html=1;fontSize=14;" parent="G6cySKqPKxWfIRrgHfy4-1" vertex="1">
          <mxGeometry x="430" y="662" width="102" height="21" as="geometry" />
        </mxCell>
        <mxCell id="Joee7rpWkr5k_gk70-ra-9" value="&lt;span style=&quot;color: rgb(0 , 0 , 0) ; font-family: &amp;#34;helvetica&amp;#34; ; font-size: 14px ; font-style: normal ; font-weight: 400 ; letter-spacing: normal ; text-align: center ; text-indent: 0px ; text-transform: none ; word-spacing: 0px ; background-color: rgb(248 , 249 , 250) ; display: inline ; float: none&quot;&gt;Province0&lt;/span&gt;" style="text;whiteSpace=wrap;html=1;fontSize=14;" parent="G6cySKqPKxWfIRrgHfy4-1" vertex="1">
          <mxGeometry x="430" y="593" width="138" height="22" as="geometry" />
        </mxCell>
        <mxCell id="Joee7rpWkr5k_gk70-ra-10" value="" style="endArrow=none;dashed=1;html=1;sketch=0;curved=0;strokeWidth=1;jumpSize=8;" parent="G6cySKqPKxWfIRrgHfy4-1" edge="1">
          <mxGeometry width="50" height="50" relative="1" as="geometry">
            <mxPoint x="192.99999999999994" y="527" as="sourcePoint" />
            <mxPoint x="305" y="527" as="targetPoint" />
          </mxGeometry>
        </mxCell>
        <mxCell id="Joee7rpWkr5k_gk70-ra-11" value="" style="endArrow=none;dashed=1;html=1;sketch=0;curved=0;strokeWidth=1;jumpSize=8;" parent="G6cySKqPKxWfIRrgHfy4-1" edge="1">
          <mxGeometry width="50" height="50" relative="1" as="geometry">
            <mxPoint x="425" y="733.9999999999999" as="sourcePoint" />
            <mxPoint x="619.0000000000002" y="733.9999999999999" as="targetPoint" />
          </mxGeometry>
        </mxCell>
        <mxCell id="Joee7rpWkr5k_gk70-ra-12" value="" style="endArrow=none;dashed=1;html=1;sketch=0;curved=0;strokeWidth=1;jumpSize=8;" parent="G6cySKqPKxWfIRrgHfy4-1" edge="1">
          <mxGeometry width="50" height="50" relative="1" as="geometry">
            <mxPoint x="193" y="141" as="sourcePoint" />
            <mxPoint x="305" y="141" as="targetPoint" />
          </mxGeometry>
        </mxCell>
        <mxCell id="AufvwkULNjLbDAEkgkRy-0" value="" style="endArrow=none;dashed=1;html=1;sketch=0;curved=0;strokeWidth=1;jumpSize=8;" parent="G6cySKqPKxWfIRrgHfy4-1" edge="1">
          <mxGeometry width="50" height="50" relative="1" as="geometry">
            <mxPoint x="111" y="273.9999999999999" as="sourcePoint" />
            <mxPoint x="305.0000000000002" y="273.9999999999999" as="targetPoint" />
          </mxGeometry>
        </mxCell>
        <mxCell id="AufvwkULNjLbDAEkgkRy-1" value="" style="endArrow=none;dashed=1;html=1;sketch=0;curved=0;strokeWidth=1;jumpSize=8;" parent="G6cySKqPKxWfIRrgHfy4-1" edge="1">
          <mxGeometry width="50" height="50" relative="1" as="geometry">
            <mxPoint x="111" y="595.9999999999999" as="sourcePoint" />
            <mxPoint x="305.0000000000002" y="595.9999999999999" as="targetPoint" />
          </mxGeometry>
        </mxCell>
        <mxCell id="AufvwkULNjLbDAEkgkRy-2" value="" style="endArrow=none;dashed=1;html=1;sketch=0;curved=0;strokeWidth=1;jumpSize=8;" parent="G6cySKqPKxWfIRrgHfy4-1" edge="1">
          <mxGeometry width="50" height="50" relative="1" as="geometry">
            <mxPoint x="111" y="665" as="sourcePoint" />
            <mxPoint x="305.0000000000002" y="665" as="targetPoint" />
          </mxGeometry>
        </mxCell>
        <mxCell id="AufvwkULNjLbDAEkgkRy-3" value="" style="endArrow=none;dashed=1;html=1;sketch=0;curved=0;strokeWidth=1;jumpSize=8;" parent="G6cySKqPKxWfIRrgHfy4-1" edge="1">
          <mxGeometry width="50" height="50" relative="1" as="geometry">
            <mxPoint x="111" y="734" as="sourcePoint" />
            <mxPoint x="305.0000000000002" y="734" as="targetPoint" />
          </mxGeometry>
        </mxCell>
        <mxCell id="AufvwkULNjLbDAEkgkRy-4" value="安全域" style="text;html=1;strokeColor=none;fillColor=none;align=center;verticalAlign=middle;whiteSpace=wrap;rounded=0;sketch=0;fontSize=14;" parent="G6cySKqPKxWfIRrgHfy4-1" vertex="1">
          <mxGeometry x="116" y="417" width="21" height="30" as="geometry" />
        </mxCell>
        <mxCell id="AufvwkULNjLbDAEkgkRy-5" value="省级" style="text;html=1;strokeColor=none;fillColor=none;align=center;verticalAlign=middle;whiteSpace=wrap;rounded=0;sketch=0;fontSize=14;" parent="G6cySKqPKxWfIRrgHfy4-1" vertex="1">
          <mxGeometry x="116" y="615" width="21" height="30" as="geometry" />
        </mxCell>
        <mxCell id="AufvwkULNjLbDAEkgkRy-6" value="行业" style="text;html=1;strokeColor=none;fillColor=none;align=center;verticalAlign=middle;whiteSpace=wrap;rounded=0;sketch=0;fontSize=14;" parent="G6cySKqPKxWfIRrgHfy4-1" vertex="1">
          <mxGeometry x="116" y="684.5" width="21" height="30" as="geometry" />
        </mxCell>
        <mxCell id="KxqS-TwDjgR9MrBUGelt-0" value="..." style="rounded=0;whiteSpace=wrap;html=1;sketch=0;strokeColor=#000000;fillColor=none;" parent="G6cySKqPKxWfIRrgHfy4-1" vertex="1">
          <mxGeometry x="305" y="550" width="120" height="23" as="geometry" />
        </mxCell>
        <mxCell id="KxqS-TwDjgR9MrBUGelt-1" value="traffic_err_industry" style="text;html=1;strokeColor=none;fillColor=none;align=right;verticalAlign=middle;whiteSpace=wrap;rounded=0;sketch=0;strokeWidth=1;fontSize=12;" parent="G6cySKqPKxWfIRrgHfy4-1" vertex="1">
          <mxGeometry x="194" y="530" width="106" height="17" as="geometry" />
        </mxCell>
        <mxCell id="KxqS-TwDjgR9MrBUGelt-2" value="" style="endArrow=none;dashed=1;html=1;sketch=0;curved=0;strokeWidth=1;jumpSize=8;" parent="G6cySKqPKxWfIRrgHfy4-1" edge="1">
          <mxGeometry width="50" height="50" relative="1" as="geometry">
            <mxPoint x="193" y="550" as="sourcePoint" />
            <mxPoint x="305" y="550" as="targetPoint" />
          </mxGeometry>
        </mxCell>
      </root>
    </mxGraphModel>
  </diagram>
  <diagram id="SXqDdyN7w3NX55JRKLlc" name="Page-5">
    <mxGraphModel dx="1347" dy="802" grid="0" gridSize="10" guides="1" tooltips="1" connect="1" arrows="1" fold="1" page="1" pageScale="1" pageWidth="827" pageHeight="1169" math="0" shadow="0">
      <root>
        <mxCell id="aJLldLwMpLSIy6gdxHfS-0" />
        <mxCell id="aJLldLwMpLSIy6gdxHfS-1" parent="aJLldLwMpLSIy6gdxHfS-0" />
        <mxCell id="6Xk8_cI_Yw1LcyGT9wEt-0" value="" style="rounded=0;whiteSpace=wrap;html=1;sketch=0;fillColor=#dae8fc;strokeColor=#000000;" parent="aJLldLwMpLSIy6gdxHfS-1" vertex="1">
          <mxGeometry x="409" y="178" width="120" height="298" as="geometry" />
        </mxCell>
        <mxCell id="6Xk8_cI_Yw1LcyGT9wEt-5" value="dst_ip" style="rounded=0;whiteSpace=wrap;html=1;sketch=0;strokeColor=#000000;fillColor=none;" parent="aJLldLwMpLSIy6gdxHfS-1" vertex="1">
          <mxGeometry x="409" y="377" width="120" height="33" as="geometry" />
        </mxCell>
        <mxCell id="6Xk8_cI_Yw1LcyGT9wEt-7" value="src_ip" style="rounded=0;whiteSpace=wrap;html=1;sketch=0;strokeColor=#000000;fillColor=none;" parent="aJLldLwMpLSIy6gdxHfS-1" vertex="1">
          <mxGeometry x="409" y="344" width="120" height="33" as="geometry" />
        </mxCell>
        <mxCell id="6Xk8_cI_Yw1LcyGT9wEt-8" value="timestamp" style="rounded=0;whiteSpace=wrap;html=1;sketch=0;strokeColor=#000000;fillColor=none;" parent="aJLldLwMpLSIy6gdxHfS-1" vertex="1">
          <mxGeometry x="409" y="311" width="120" height="33" as="geometry" />
        </mxCell>
        <mxCell id="6Xk8_cI_Yw1LcyGT9wEt-9" value="exception_type" style="rounded=0;whiteSpace=wrap;html=1;sketch=0;strokeColor=#000000;fillColor=none;" parent="aJLldLwMpLSIy6gdxHfS-1" vertex="1">
          <mxGeometry x="409" y="443" width="120" height="33" as="geometry" />
        </mxCell>
        <mxCell id="6Xk8_cI_Yw1LcyGT9wEt-10" value="src_province_id" style="rounded=0;whiteSpace=wrap;html=1;sketch=0;strokeColor=#000000;fillColor=none;" parent="aJLldLwMpLSIy6gdxHfS-1" vertex="1">
          <mxGeometry x="409" y="245" width="120" height="33" as="geometry" />
        </mxCell>
        <mxCell id="6Xk8_cI_Yw1LcyGT9wEt-11" value="src_area_id" style="rounded=0;whiteSpace=wrap;html=1;sketch=0;strokeColor=#000000;fillColor=none;" parent="aJLldLwMpLSIy6gdxHfS-1" vertex="1">
          <mxGeometry x="409" y="212" width="120" height="33" as="geometry" />
        </mxCell>
        <mxCell id="6Xk8_cI_Yw1LcyGT9wEt-12" value="src_dev_type" style="rounded=0;whiteSpace=wrap;html=1;sketch=0;strokeColor=#000000;fillColor=none;" parent="aJLldLwMpLSIy6gdxHfS-1" vertex="1">
          <mxGeometry x="409" y="178" width="120" height="34" as="geometry" />
        </mxCell>
        <mxCell id="6Xk8_cI_Yw1LcyGT9wEt-13" value="" style="endArrow=none;dashed=1;html=1;sketch=0;curved=0;strokeWidth=1;jumpSize=8;" parent="aJLldLwMpLSIy6gdxHfS-1" edge="1">
          <mxGeometry width="50" height="50" relative="1" as="geometry">
            <mxPoint x="304" y="476" as="sourcePoint" />
            <mxPoint x="409" y="476" as="targetPoint" />
          </mxGeometry>
        </mxCell>
        <mxCell id="6Xk8_cI_Yw1LcyGT9wEt-14" value="" style="endArrow=none;dashed=1;html=1;sketch=0;curved=0;strokeWidth=1;jumpSize=8;" parent="aJLldLwMpLSIy6gdxHfS-1" edge="1">
          <mxGeometry width="50" height="50" relative="1" as="geometry">
            <mxPoint x="304" y="178" as="sourcePoint" />
            <mxPoint x="409" y="178" as="targetPoint" />
          </mxGeometry>
        </mxCell>
        <mxCell id="6Xk8_cI_Yw1LcyGT9wEt-16" value="" style="endArrow=none;dashed=1;html=1;sketch=0;curved=0;strokeWidth=1;jumpSize=8;" parent="aJLldLwMpLSIy6gdxHfS-1" edge="1">
          <mxGeometry width="50" height="50" relative="1" as="geometry">
            <mxPoint x="529" y="550" as="sourcePoint" />
            <mxPoint x="634" y="550" as="targetPoint" />
          </mxGeometry>
        </mxCell>
        <mxCell id="6Xk8_cI_Yw1LcyGT9wEt-17" value="" style="endArrow=none;dashed=1;html=1;sketch=0;curved=0;strokeWidth=1;jumpSize=8;" parent="aJLldLwMpLSIy6gdxHfS-1" edge="1">
          <mxGeometry width="50" height="50" relative="1" as="geometry">
            <mxPoint x="532" y="587" as="sourcePoint" />
            <mxPoint x="637" y="587" as="targetPoint" />
          </mxGeometry>
        </mxCell>
        <mxCell id="6Xk8_cI_Yw1LcyGT9wEt-18" value="Index0" style="text;html=1;strokeColor=none;fillColor=none;align=center;verticalAlign=middle;whiteSpace=wrap;rounded=0;sketch=0;" parent="aJLldLwMpLSIy6gdxHfS-1" vertex="1">
          <mxGeometry x="560" y="273" width="60" height="30" as="geometry" />
        </mxCell>
        <mxCell id="6Xk8_cI_Yw1LcyGT9wEt-21" value="IndexN-1" style="text;html=1;strokeColor=none;fillColor=none;align=center;verticalAlign=middle;whiteSpace=wrap;rounded=0;sketch=0;" parent="aJLldLwMpLSIy6gdxHfS-1" vertex="1">
          <mxGeometry x="560" y="557" width="60" height="30" as="geometry" />
        </mxCell>
        <mxCell id="6Xk8_cI_Yw1LcyGT9wEt-22" value="" style="endArrow=none;dashed=1;html=1;sketch=0;curved=0;strokeWidth=1;jumpSize=8;" parent="aJLldLwMpLSIy6gdxHfS-1" edge="1">
          <mxGeometry width="50" height="50" relative="1" as="geometry">
            <mxPoint x="529" y="178" as="sourcePoint" />
            <mxPoint x="634" y="178" as="targetPoint" />
          </mxGeometry>
        </mxCell>
        <mxCell id="6Xk8_cI_Yw1LcyGT9wEt-24" value="alarm_info" style="text;html=1;strokeColor=none;fillColor=none;align=center;verticalAlign=middle;whiteSpace=wrap;rounded=0;sketch=0;" parent="aJLldLwMpLSIy6gdxHfS-1" vertex="1">
          <mxGeometry x="316" y="314" width="60" height="30" as="geometry" />
        </mxCell>
        <mxCell id="somlI2kfcVVd_8AZJx90-2" value="N-1" style="rounded=0;whiteSpace=wrap;html=1;sketch=0;" parent="aJLldLwMpLSIy6gdxHfS-1" vertex="1">
          <mxGeometry x="409" y="550" width="120" height="37" as="geometry" />
        </mxCell>
        <mxCell id="somlI2kfcVVd_8AZJx90-3" value="...." style="rounded=0;whiteSpace=wrap;html=1;sketch=0;" parent="aJLldLwMpLSIy6gdxHfS-1" vertex="1">
          <mxGeometry x="409" y="513" width="120" height="37" as="geometry" />
        </mxCell>
        <mxCell id="somlI2kfcVVd_8AZJx90-4" value="..." style="rounded=0;whiteSpace=wrap;html=1;sketch=0;" parent="aJLldLwMpLSIy6gdxHfS-1" vertex="1">
          <mxGeometry x="409" y="476" width="120" height="37" as="geometry" />
        </mxCell>
        <mxCell id="somlI2kfcVVd_8AZJx90-5" value="Index1" style="text;html=1;strokeColor=none;fillColor=none;align=center;verticalAlign=middle;whiteSpace=wrap;rounded=0;sketch=0;" parent="aJLldLwMpLSIy6gdxHfS-1" vertex="1">
          <mxGeometry x="554" y="479.5" width="60" height="30" as="geometry" />
        </mxCell>
        <mxCell id="somlI2kfcVVd_8AZJx90-6" value="" style="endArrow=none;dashed=1;html=1;sketch=0;curved=0;strokeWidth=1;jumpSize=8;" parent="aJLldLwMpLSIy6gdxHfS-1" edge="1">
          <mxGeometry width="50" height="50" relative="1" as="geometry">
            <mxPoint x="532" y="513" as="sourcePoint" />
            <mxPoint x="637" y="513" as="targetPoint" />
          </mxGeometry>
        </mxCell>
        <mxCell id="somlI2kfcVVd_8AZJx90-7" value="..." style="text;html=1;strokeColor=none;fillColor=none;align=center;verticalAlign=middle;whiteSpace=wrap;rounded=0;sketch=0;" parent="aJLldLwMpLSIy6gdxHfS-1" vertex="1">
          <mxGeometry x="554" y="516.5" width="60" height="30" as="geometry" />
        </mxCell>
        <mxCell id="somlI2kfcVVd_8AZJx90-8" value="src_industry_id" style="rounded=0;whiteSpace=wrap;html=1;sketch=0;strokeColor=#000000;fillColor=none;" parent="aJLldLwMpLSIy6gdxHfS-1" vertex="1">
          <mxGeometry x="409" y="278" width="120" height="33" as="geometry" />
        </mxCell>
        <mxCell id="somlI2kfcVVd_8AZJx90-9" value="protocol" style="rounded=0;whiteSpace=wrap;html=1;sketch=0;strokeColor=#000000;fillColor=none;" parent="aJLldLwMpLSIy6gdxHfS-1" vertex="1">
          <mxGeometry x="409" y="410" width="120" height="33" as="geometry" />
        </mxCell>
        <mxCell id="somlI2kfcVVd_8AZJx90-10" value="" style="endArrow=none;dashed=1;html=1;sketch=0;curved=0;strokeWidth=1;jumpSize=8;" parent="aJLldLwMpLSIy6gdxHfS-1" edge="1">
          <mxGeometry width="50" height="50" relative="1" as="geometry">
            <mxPoint x="531.5" y="475.52" as="sourcePoint" />
            <mxPoint x="636.5" y="475.52" as="targetPoint" />
          </mxGeometry>
        </mxCell>
      </root>
    </mxGraphModel>
  </diagram>
  <diagram id="WdJNBxT-kABHJvmbUU_C" name="Page-6">
    <mxGraphModel dx="1347" dy="802" grid="1" gridSize="10" guides="1" tooltips="1" connect="1" arrows="1" fold="1" page="1" pageScale="1" pageWidth="827" pageHeight="1169" math="0" shadow="0">
      <root>
        <mxCell id="IBgHzySFsSw2YQlDGMA0-0" />
        <mxCell id="IBgHzySFsSw2YQlDGMA0-1" parent="IBgHzySFsSw2YQlDGMA0-0" />
        <mxCell id="IBgHzySFsSw2YQlDGMA0-17" value="" style="edgeStyle=orthogonalEdgeStyle;rounded=0;orthogonalLoop=1;jettySize=auto;html=1;" parent="IBgHzySFsSw2YQlDGMA0-1" source="IBgHzySFsSw2YQlDGMA0-2" target="IBgHzySFsSw2YQlDGMA0-16" edge="1">
          <mxGeometry relative="1" as="geometry" />
        </mxCell>
        <mxCell id="IBgHzySFsSw2YQlDGMA0-2" value="设备报警推送" style="rounded=1;whiteSpace=wrap;html=1;" parent="IBgHzySFsSw2YQlDGMA0-1" vertex="1">
          <mxGeometry x="170" y="100" width="120" height="60" as="geometry" />
        </mxCell>
        <mxCell id="IBgHzySFsSw2YQlDGMA0-19" value="" style="edgeStyle=orthogonalEdgeStyle;rounded=0;orthogonalLoop=1;jettySize=auto;html=1;" parent="IBgHzySFsSw2YQlDGMA0-1" source="IBgHzySFsSw2YQlDGMA0-16" target="IBgHzySFsSw2YQlDGMA0-18" edge="1">
          <mxGeometry relative="1" as="geometry" />
        </mxCell>
        <mxCell id="IBgHzySFsSw2YQlDGMA0-16" value="获取当前表名" style="whiteSpace=wrap;html=1;rounded=0;" parent="IBgHzySFsSw2YQlDGMA0-1" vertex="1">
          <mxGeometry x="170" y="200" width="120" height="60" as="geometry" />
        </mxCell>
        <mxCell id="IBgHzySFsSw2YQlDGMA0-21" value="" style="edgeStyle=orthogonalEdgeStyle;rounded=0;orthogonalLoop=1;jettySize=auto;html=1;" parent="IBgHzySFsSw2YQlDGMA0-1" source="IBgHzySFsSw2YQlDGMA0-18" target="IBgHzySFsSw2YQlDGMA0-20" edge="1">
          <mxGeometry relative="1" as="geometry" />
        </mxCell>
        <mxCell id="IBgHzySFsSw2YQlDGMA0-18" value="插入数据" style="whiteSpace=wrap;html=1;rounded=0;" parent="IBgHzySFsSw2YQlDGMA0-1" vertex="1">
          <mxGeometry x="170" y="310" width="120" height="60" as="geometry" />
        </mxCell>
        <mxCell id="IBgHzySFsSw2YQlDGMA0-35" value="" style="edgeStyle=orthogonalEdgeStyle;rounded=0;orthogonalLoop=1;jettySize=auto;html=1;" parent="IBgHzySFsSw2YQlDGMA0-1" source="IBgHzySFsSw2YQlDGMA0-20" target="IBgHzySFsSw2YQlDGMA0-34" edge="1">
          <mxGeometry relative="1" as="geometry" />
        </mxCell>
        <mxCell id="IBgHzySFsSw2YQlDGMA0-20" value="通知数据量更新" style="whiteSpace=wrap;html=1;rounded=0;" parent="IBgHzySFsSw2YQlDGMA0-1" vertex="1">
          <mxGeometry x="170" y="410" width="120" height="60" as="geometry" />
        </mxCell>
        <mxCell id="IBgHzySFsSw2YQlDGMA0-24" value="" style="edgeStyle=orthogonalEdgeStyle;rounded=0;orthogonalLoop=1;jettySize=auto;html=1;startArrow=none;" parent="IBgHzySFsSw2YQlDGMA0-1" source="IBgHzySFsSw2YQlDGMA0-38" edge="1">
          <mxGeometry relative="1" as="geometry">
            <mxPoint x="460" y="240" as="targetPoint" />
          </mxGeometry>
        </mxCell>
        <mxCell id="IBgHzySFsSw2YQlDGMA0-22" value="数据量更新" style="rounded=1;whiteSpace=wrap;html=1;" parent="IBgHzySFsSw2YQlDGMA0-1" vertex="1">
          <mxGeometry x="400" y="100" width="120" height="60" as="geometry" />
        </mxCell>
        <mxCell id="IBgHzySFsSw2YQlDGMA0-43" value="是" style="edgeStyle=orthogonalEdgeStyle;rounded=0;orthogonalLoop=1;jettySize=auto;html=1;" parent="IBgHzySFsSw2YQlDGMA0-1" source="IBgHzySFsSw2YQlDGMA0-27" target="IBgHzySFsSw2YQlDGMA0-42" edge="1">
          <mxGeometry relative="1" as="geometry" />
        </mxCell>
        <mxCell id="IBgHzySFsSw2YQlDGMA0-27" value="更新表与当前表是否相同" style="rhombus;whiteSpace=wrap;html=1;" parent="IBgHzySFsSw2YQlDGMA0-1" vertex="1">
          <mxGeometry x="420" y="290" width="80" height="80" as="geometry" />
        </mxCell>
        <mxCell id="IBgHzySFsSw2YQlDGMA0-34" value="结束" style="rounded=1;whiteSpace=wrap;html=1;" parent="IBgHzySFsSw2YQlDGMA0-1" vertex="1">
          <mxGeometry x="170" y="510" width="120" height="60" as="geometry" />
        </mxCell>
        <mxCell id="IBgHzySFsSw2YQlDGMA0-39" value="" style="edgeStyle=orthogonalEdgeStyle;rounded=0;orthogonalLoop=1;jettySize=auto;html=1;" parent="IBgHzySFsSw2YQlDGMA0-1" source="IBgHzySFsSw2YQlDGMA0-38" target="IBgHzySFsSw2YQlDGMA0-27" edge="1">
          <mxGeometry relative="1" as="geometry" />
        </mxCell>
        <mxCell id="IBgHzySFsSw2YQlDGMA0-49" style="edgeStyle=orthogonalEdgeStyle;rounded=0;orthogonalLoop=1;jettySize=auto;html=1;entryX=1;entryY=0.5;entryDx=0;entryDy=0;exitX=1;exitY=0.5;exitDx=0;exitDy=0;" parent="IBgHzySFsSw2YQlDGMA0-1" source="IBgHzySFsSw2YQlDGMA0-27" target="IBgHzySFsSw2YQlDGMA0-46" edge="1">
          <mxGeometry relative="1" as="geometry">
            <Array as="points">
              <mxPoint x="580" y="330" />
              <mxPoint x="580" y="680" />
            </Array>
          </mxGeometry>
        </mxCell>
        <mxCell id="IBgHzySFsSw2YQlDGMA0-50" value="否" style="edgeLabel;html=1;align=center;verticalAlign=middle;resizable=0;points=[];" parent="IBgHzySFsSw2YQlDGMA0-49" vertex="1" connectable="0">
          <mxGeometry x="-0.198" relative="1" as="geometry">
            <mxPoint as="offset" />
          </mxGeometry>
        </mxCell>
        <mxCell id="IBgHzySFsSw2YQlDGMA0-45" value="是" style="edgeStyle=orthogonalEdgeStyle;rounded=0;orthogonalLoop=1;jettySize=auto;html=1;" parent="IBgHzySFsSw2YQlDGMA0-1" source="IBgHzySFsSw2YQlDGMA0-42" target="IBgHzySFsSw2YQlDGMA0-44" edge="1">
          <mxGeometry relative="1" as="geometry" />
        </mxCell>
        <mxCell id="IBgHzySFsSw2YQlDGMA0-51" style="edgeStyle=orthogonalEdgeStyle;rounded=0;orthogonalLoop=1;jettySize=auto;html=1;exitX=1;exitY=0.5;exitDx=0;exitDy=0;entryX=1;entryY=0.5;entryDx=0;entryDy=0;" parent="IBgHzySFsSw2YQlDGMA0-1" source="IBgHzySFsSw2YQlDGMA0-42" target="IBgHzySFsSw2YQlDGMA0-46" edge="1">
          <mxGeometry relative="1" as="geometry">
            <Array as="points">
              <mxPoint x="580" y="470" />
              <mxPoint x="580" y="680" />
            </Array>
          </mxGeometry>
        </mxCell>
        <mxCell id="IBgHzySFsSw2YQlDGMA0-42" value="是否需要创建新表" style="rhombus;whiteSpace=wrap;html=1;" parent="IBgHzySFsSw2YQlDGMA0-1" vertex="1">
          <mxGeometry x="420" y="430" width="80" height="80" as="geometry" />
        </mxCell>
        <mxCell id="IBgHzySFsSw2YQlDGMA0-48" value="" style="edgeStyle=orthogonalEdgeStyle;rounded=0;orthogonalLoop=1;jettySize=auto;html=1;" parent="IBgHzySFsSw2YQlDGMA0-1" source="IBgHzySFsSw2YQlDGMA0-44" target="IBgHzySFsSw2YQlDGMA0-46" edge="1">
          <mxGeometry relative="1" as="geometry" />
        </mxCell>
        <mxCell id="IBgHzySFsSw2YQlDGMA0-44" value="创建新，并更新当前表" style="whiteSpace=wrap;html=1;" parent="IBgHzySFsSw2YQlDGMA0-1" vertex="1">
          <mxGeometry x="400" y="555" width="120" height="60" as="geometry" />
        </mxCell>
        <mxCell id="IBgHzySFsSw2YQlDGMA0-46" value="结束" style="rounded=1;whiteSpace=wrap;html=1;" parent="IBgHzySFsSw2YQlDGMA0-1" vertex="1">
          <mxGeometry x="400" y="650" width="120" height="60" as="geometry" />
        </mxCell>
        <mxCell id="IBgHzySFsSw2YQlDGMA0-38" value="更新表的数据条数" style="whiteSpace=wrap;html=1;" parent="IBgHzySFsSw2YQlDGMA0-1" vertex="1">
          <mxGeometry x="400" y="200" width="120" height="60" as="geometry" />
        </mxCell>
        <mxCell id="IBgHzySFsSw2YQlDGMA0-52" value="" style="edgeStyle=orthogonalEdgeStyle;rounded=0;orthogonalLoop=1;jettySize=auto;html=1;endArrow=none;" parent="IBgHzySFsSw2YQlDGMA0-1" source="IBgHzySFsSw2YQlDGMA0-22" target="IBgHzySFsSw2YQlDGMA0-38" edge="1">
          <mxGeometry relative="1" as="geometry">
            <mxPoint x="460" y="160" as="sourcePoint" />
            <mxPoint x="460" y="240" as="targetPoint" />
          </mxGeometry>
        </mxCell>
      </root>
    </mxGraphModel>
  </diagram>
  <diagram id="1HZgnnDKrPUgblAyVOOn" name="Page-7">
    <mxGraphModel dx="1499" dy="697" grid="0" gridSize="10" guides="1" tooltips="1" connect="1" arrows="1" fold="1" page="1" pageScale="1" pageWidth="1920" pageHeight="1200" math="0" shadow="0">
      <root>
        <mxCell id="cbhOVNQS-aoyCbuqmr_c-0" />
        <mxCell id="cbhOVNQS-aoyCbuqmr_c-1" parent="cbhOVNQS-aoyCbuqmr_c-0" />
        <mxCell id="hbjri0h0WPWbcArkOZDH-9" value="" style="rounded=1;whiteSpace=wrap;html=1;fillColor=#f8cecc;strokeColor=#b85450;arcSize=6;align=left;" vertex="1" parent="cbhOVNQS-aoyCbuqmr_c-1">
          <mxGeometry x="718" y="454" width="210" height="180" as="geometry" />
        </mxCell>
        <mxCell id="hbjri0h0WPWbcArkOZDH-0" value="" style="rounded=1;whiteSpace=wrap;html=1;fillColor=#f8cecc;strokeColor=#b85450;arcSize=6;align=left;" vertex="1" parent="cbhOVNQS-aoyCbuqmr_c-1">
          <mxGeometry x="237" y="454" width="210" height="180" as="geometry" />
        </mxCell>
        <mxCell id="hbjri0h0WPWbcArkOZDH-7" style="edgeStyle=orthogonalEdgeStyle;rounded=0;orthogonalLoop=1;jettySize=auto;html=1;exitX=1;exitY=0.5;exitDx=0;exitDy=0;entryX=0;entryY=0.5;entryDx=0;entryDy=0;endArrow=none;endFill=0;" edge="1" parent="cbhOVNQS-aoyCbuqmr_c-1" source="hbjri0h0WPWbcArkOZDH-2" target="hbjri0h0WPWbcArkOZDH-3">
          <mxGeometry relative="1" as="geometry" />
        </mxCell>
        <mxCell id="hbjri0h0WPWbcArkOZDH-2" value="DC" style="rounded=0;whiteSpace=wrap;html=1;strokeColor=#333333;" vertex="1" parent="cbhOVNQS-aoyCbuqmr_c-1">
          <mxGeometry x="267" y="514" width="50" height="30" as="geometry" />
        </mxCell>
        <mxCell id="hbjri0h0WPWbcArkOZDH-3" value="信令网关" style="rounded=0;whiteSpace=wrap;html=1;strokeColor=#d79b00;fillColor=#ffcd28;gradientColor=#ffa500;" vertex="1" parent="cbhOVNQS-aoyCbuqmr_c-1">
          <mxGeometry x="352" y="514" width="70" height="30" as="geometry" />
        </mxCell>
        <mxCell id="hbjri0h0WPWbcArkOZDH-6" style="edgeStyle=orthogonalEdgeStyle;rounded=0;orthogonalLoop=1;jettySize=auto;html=1;exitX=1;exitY=0.5;exitDx=0;exitDy=0;entryX=0;entryY=0.5;entryDx=0;entryDy=0;endArrow=none;endFill=0;" edge="1" parent="cbhOVNQS-aoyCbuqmr_c-1" source="hbjri0h0WPWbcArkOZDH-4" target="hbjri0h0WPWbcArkOZDH-5">
          <mxGeometry relative="1" as="geometry" />
        </mxCell>
        <mxCell id="hbjri0h0WPWbcArkOZDH-4" value="DC" style="rounded=0;whiteSpace=wrap;html=1;strokeColor=#333333;" vertex="1" parent="cbhOVNQS-aoyCbuqmr_c-1">
          <mxGeometry x="267" y="574" width="50" height="30" as="geometry" />
        </mxCell>
        <mxCell id="hbjri0h0WPWbcArkOZDH-21" style="edgeStyle=orthogonalEdgeStyle;rounded=0;orthogonalLoop=1;jettySize=auto;html=1;exitX=1;exitY=0.75;exitDx=0;exitDy=0;entryX=0;entryY=0.5;entryDx=0;entryDy=0;endArrow=none;endFill=0;" edge="1" parent="cbhOVNQS-aoyCbuqmr_c-1" source="hbjri0h0WPWbcArkOZDH-5" target="hbjri0h0WPWbcArkOZDH-17">
          <mxGeometry relative="1" as="geometry" />
        </mxCell>
        <mxCell id="hbjri0h0WPWbcArkOZDH-5" value="IPSecVPN" style="rounded=0;whiteSpace=wrap;html=1;strokeColor=#333333;" vertex="1" parent="cbhOVNQS-aoyCbuqmr_c-1">
          <mxGeometry x="352" y="574" width="70" height="30" as="geometry" />
        </mxCell>
        <mxCell id="hbjri0h0WPWbcArkOZDH-8" value="行业1用户域" style="text;html=1;strokeColor=none;fillColor=none;align=center;verticalAlign=middle;whiteSpace=wrap;rounded=0;" vertex="1" parent="cbhOVNQS-aoyCbuqmr_c-1">
          <mxGeometry x="304.5" y="464" width="75" height="30" as="geometry" />
        </mxCell>
        <mxCell id="hbjri0h0WPWbcArkOZDH-10" style="edgeStyle=orthogonalEdgeStyle;rounded=0;orthogonalLoop=1;jettySize=auto;html=1;exitX=1;exitY=0.5;exitDx=0;exitDy=0;entryX=0;entryY=0.5;entryDx=0;entryDy=0;endArrow=none;endFill=0;" edge="1" parent="cbhOVNQS-aoyCbuqmr_c-1" source="hbjri0h0WPWbcArkOZDH-11" target="hbjri0h0WPWbcArkOZDH-12">
          <mxGeometry relative="1" as="geometry" />
        </mxCell>
        <mxCell id="hbjri0h0WPWbcArkOZDH-11" value="信令网关" style="rounded=0;whiteSpace=wrap;html=1;strokeColor=#d79b00;fillColor=#ffcd28;gradientColor=#ffa500;" vertex="1" parent="cbhOVNQS-aoyCbuqmr_c-1">
          <mxGeometry x="748" y="514" width="70" height="30" as="geometry" />
        </mxCell>
        <mxCell id="hbjri0h0WPWbcArkOZDH-12" value="DC" style="rounded=0;whiteSpace=wrap;html=1;" vertex="1" parent="cbhOVNQS-aoyCbuqmr_c-1">
          <mxGeometry x="849" y="517" width="54" height="29" as="geometry" />
        </mxCell>
        <mxCell id="hbjri0h0WPWbcArkOZDH-13" style="edgeStyle=orthogonalEdgeStyle;rounded=0;orthogonalLoop=1;jettySize=auto;html=1;exitX=1;exitY=0.5;exitDx=0;exitDy=0;entryX=0;entryY=0.5;entryDx=0;entryDy=0;endArrow=none;endFill=0;" edge="1" parent="cbhOVNQS-aoyCbuqmr_c-1" source="hbjri0h0WPWbcArkOZDH-14" target="hbjri0h0WPWbcArkOZDH-15">
          <mxGeometry relative="1" as="geometry" />
        </mxCell>
        <mxCell id="hbjri0h0WPWbcArkOZDH-20" style="edgeStyle=orthogonalEdgeStyle;rounded=0;orthogonalLoop=1;jettySize=auto;html=1;exitX=0;exitY=0.5;exitDx=0;exitDy=0;entryX=1;entryY=0.5;entryDx=0;entryDy=0;endArrow=none;endFill=0;" edge="1" parent="cbhOVNQS-aoyCbuqmr_c-1" source="hbjri0h0WPWbcArkOZDH-14" target="hbjri0h0WPWbcArkOZDH-17">
          <mxGeometry relative="1" as="geometry" />
        </mxCell>
        <mxCell id="hbjri0h0WPWbcArkOZDH-14" value="IPSecVPN" style="rounded=0;whiteSpace=wrap;html=1;strokeColor=#333333;" vertex="1" parent="cbhOVNQS-aoyCbuqmr_c-1">
          <mxGeometry x="748" y="577" width="70" height="30" as="geometry" />
        </mxCell>
        <mxCell id="hbjri0h0WPWbcArkOZDH-15" value="DC" style="rounded=0;whiteSpace=wrap;html=1;strokeColor=#333333;" vertex="1" parent="cbhOVNQS-aoyCbuqmr_c-1">
          <mxGeometry x="849" y="578" width="54" height="26" as="geometry" />
        </mxCell>
        <mxCell id="hbjri0h0WPWbcArkOZDH-16" value="行业2用户域" style="text;html=1;strokeColor=none;fillColor=none;align=center;verticalAlign=middle;whiteSpace=wrap;rounded=0;" vertex="1" parent="cbhOVNQS-aoyCbuqmr_c-1">
          <mxGeometry x="785.5" y="464" width="75" height="30" as="geometry" />
        </mxCell>
        <mxCell id="hbjri0h0WPWbcArkOZDH-17" value="IP&lt;br&gt;承&lt;br&gt;载&lt;br&gt;网" style="ellipse;whiteSpace=wrap;html=1;strokeColor=#333333;fillColor=none;gradientColor=none;dashed=1;" vertex="1" parent="cbhOVNQS-aoyCbuqmr_c-1">
          <mxGeometry x="524" y="434" width="120" height="281" as="geometry" />
        </mxCell>
        <mxCell id="hbjri0h0WPWbcArkOZDH-19" style="edgeStyle=orthogonalEdgeStyle;rounded=0;orthogonalLoop=1;jettySize=auto;html=1;exitX=1;exitY=0.5;exitDx=0;exitDy=0;entryX=0;entryY=0.5;entryDx=0;entryDy=0;endArrow=none;endFill=0;fillColor=#ffcd28;gradientColor=#ffa500;strokeColor=#d79b00;" edge="1" parent="cbhOVNQS-aoyCbuqmr_c-1" source="hbjri0h0WPWbcArkOZDH-3" target="hbjri0h0WPWbcArkOZDH-17">
          <mxGeometry relative="1" as="geometry" />
        </mxCell>
        <mxCell id="hbjri0h0WPWbcArkOZDH-18" style="edgeStyle=orthogonalEdgeStyle;rounded=0;orthogonalLoop=1;jettySize=auto;html=1;exitX=0;exitY=0.75;exitDx=0;exitDy=0;entryX=1;entryY=0.5;entryDx=0;entryDy=0;endArrow=none;endFill=0;fillColor=#ffcd28;gradientColor=#ffa500;strokeColor=#d79b00;" edge="1" parent="cbhOVNQS-aoyCbuqmr_c-1" source="hbjri0h0WPWbcArkOZDH-11" target="hbjri0h0WPWbcArkOZDH-17">
          <mxGeometry relative="1" as="geometry" />
        </mxCell>
        <mxCell id="hbjri0h0WPWbcArkOZDH-23" value="" style="rounded=1;whiteSpace=wrap;html=1;fillColor=#b0e3e6;strokeColor=#0e8088;arcSize=6;align=left;" vertex="1" parent="cbhOVNQS-aoyCbuqmr_c-1">
          <mxGeometry x="400.5" y="749" width="367" height="155" as="geometry" />
        </mxCell>
        <mxCell id="hbjri0h0WPWbcArkOZDH-24" value="" style="rounded=0;whiteSpace=wrap;html=1;" vertex="1" parent="cbhOVNQS-aoyCbuqmr_c-1">
          <mxGeometry x="429" y="796" width="120" height="92" as="geometry" />
        </mxCell>
        <mxCell id="hbjri0h0WPWbcArkOZDH-25" value="T-eNB" style="text;html=1;strokeColor=none;fillColor=none;align=center;verticalAlign=middle;whiteSpace=wrap;rounded=0;" vertex="1" parent="cbhOVNQS-aoyCbuqmr_c-1">
          <mxGeometry x="457" y="852" width="60" height="30" as="geometry" />
        </mxCell>
        <mxCell id="hbjri0h0WPWbcArkOZDH-31" style="edgeStyle=orthogonalEdgeStyle;rounded=0;orthogonalLoop=1;jettySize=auto;html=1;exitX=0.5;exitY=0;exitDx=0;exitDy=0;entryX=0;entryY=1;entryDx=0;entryDy=0;endArrow=none;endFill=0;" edge="1" parent="cbhOVNQS-aoyCbuqmr_c-1" source="hbjri0h0WPWbcArkOZDH-26" target="hbjri0h0WPWbcArkOZDH-17">
          <mxGeometry relative="1" as="geometry" />
        </mxCell>
        <mxCell id="hbjri0h0WPWbcArkOZDH-26" value="基站染色&lt;br&gt;组件" style="rounded=0;whiteSpace=wrap;html=1;strokeColor=#333333;fillColor=none;gradientColor=none;" vertex="1" parent="cbhOVNQS-aoyCbuqmr_c-1">
          <mxGeometry x="448" y="807" width="83" height="41" as="geometry" />
        </mxCell>
        <mxCell id="hbjri0h0WPWbcArkOZDH-27" value="" style="rounded=0;whiteSpace=wrap;html=1;" vertex="1" parent="cbhOVNQS-aoyCbuqmr_c-1">
          <mxGeometry x="619" y="796" width="118" height="91" as="geometry" />
        </mxCell>
        <mxCell id="hbjri0h0WPWbcArkOZDH-28" value="T-eNB" style="text;html=1;strokeColor=none;fillColor=none;align=center;verticalAlign=middle;whiteSpace=wrap;rounded=0;" vertex="1" parent="cbhOVNQS-aoyCbuqmr_c-1">
          <mxGeometry x="649" y="852" width="60" height="30" as="geometry" />
        </mxCell>
        <mxCell id="hbjri0h0WPWbcArkOZDH-30" style="edgeStyle=orthogonalEdgeStyle;rounded=0;orthogonalLoop=1;jettySize=auto;html=1;exitX=0.5;exitY=0;exitDx=0;exitDy=0;entryX=1;entryY=1;entryDx=0;entryDy=0;endArrow=none;endFill=0;" edge="1" parent="cbhOVNQS-aoyCbuqmr_c-1" source="hbjri0h0WPWbcArkOZDH-29" target="hbjri0h0WPWbcArkOZDH-17">
          <mxGeometry relative="1" as="geometry" />
        </mxCell>
        <mxCell id="hbjri0h0WPWbcArkOZDH-29" value="基站染色&lt;br&gt;组件" style="rounded=0;whiteSpace=wrap;html=1;strokeColor=#333333;fillColor=none;gradientColor=none;" vertex="1" parent="cbhOVNQS-aoyCbuqmr_c-1">
          <mxGeometry x="638" y="807" width="82" height="42" as="geometry" />
        </mxCell>
        <mxCell id="hbjri0h0WPWbcArkOZDH-33" value="无线接入域" style="text;html=1;strokeColor=none;fillColor=none;align=center;verticalAlign=middle;whiteSpace=wrap;rounded=0;" vertex="1" parent="cbhOVNQS-aoyCbuqmr_c-1">
          <mxGeometry x="549" y="765" width="70" height="29" as="geometry" />
        </mxCell>
        <mxCell id="hbjri0h0WPWbcArkOZDH-34" value="" style="rounded=1;whiteSpace=wrap;html=1;fillColor=#b1ddf0;strokeColor=#10739e;arcSize=6;align=left;" vertex="1" parent="cbhOVNQS-aoyCbuqmr_c-1">
          <mxGeometry x="521" y="207" width="309" height="176" as="geometry" />
        </mxCell>
        <mxCell id="hbjri0h0WPWbcArkOZDH-46" style="edgeStyle=orthogonalEdgeStyle;rounded=0;orthogonalLoop=1;jettySize=auto;html=1;exitX=0.5;exitY=1;exitDx=0;exitDy=0;entryX=0.5;entryY=0;entryDx=0;entryDy=0;endArrow=none;endFill=0;fillColor=#ffcd28;gradientColor=#ffa500;strokeColor=#d79b00;" edge="1" parent="cbhOVNQS-aoyCbuqmr_c-1" source="hbjri0h0WPWbcArkOZDH-35" target="hbjri0h0WPWbcArkOZDH-17">
          <mxGeometry relative="1" as="geometry" />
        </mxCell>
        <mxCell id="hbjri0h0WPWbcArkOZDH-35" value="信令网关管理平台&lt;br&gt;一级平台" style="rounded=0;whiteSpace=wrap;html=1;fillColor=#ffcd28;gradientColor=#ffa500;strokeColor=#d79b00;" vertex="1" parent="cbhOVNQS-aoyCbuqmr_c-1">
          <mxGeometry x="531" y="334" width="106" height="42" as="geometry" />
        </mxCell>
        <mxCell id="hbjri0h0WPWbcArkOZDH-36" value="XGW-C" style="rounded=0;whiteSpace=wrap;html=1;dashed=1;" vertex="1" parent="cbhOVNQS-aoyCbuqmr_c-1">
          <mxGeometry x="703" y="310" width="75" height="39" as="geometry" />
        </mxCell>
        <mxCell id="hbjri0h0WPWbcArkOZDH-38" value="XGW-C" style="rounded=0;whiteSpace=wrap;html=1;dashed=1;" vertex="1" parent="cbhOVNQS-aoyCbuqmr_c-1">
          <mxGeometry x="695" y="318" width="75" height="39" as="geometry" />
        </mxCell>
        <mxCell id="hbjri0h0WPWbcArkOZDH-39" value="XGW-C" style="rounded=0;whiteSpace=wrap;html=1;dashed=1;" vertex="1" parent="cbhOVNQS-aoyCbuqmr_c-1">
          <mxGeometry x="686" y="326" width="75" height="39" as="geometry" />
        </mxCell>
        <mxCell id="hbjri0h0WPWbcArkOZDH-40" value="" style="rounded=0;whiteSpace=wrap;html=1;dashed=1;" vertex="1" parent="cbhOVNQS-aoyCbuqmr_c-1">
          <mxGeometry x="593" y="233" width="165" height="72" as="geometry" />
        </mxCell>
        <mxCell id="hbjri0h0WPWbcArkOZDH-41" value="密码基础设施" style="text;html=1;strokeColor=none;fillColor=none;align=center;verticalAlign=middle;whiteSpace=wrap;rounded=0;dashed=1;" vertex="1" parent="cbhOVNQS-aoyCbuqmr_c-1">
          <mxGeometry x="637" y="233" width="77" height="28" as="geometry" />
        </mxCell>
        <mxCell id="hbjri0h0WPWbcArkOZDH-42" value="PKG" style="rounded=0;whiteSpace=wrap;html=1;strokeColor=#333333;fillColor=none;gradientColor=none;" vertex="1" parent="cbhOVNQS-aoyCbuqmr_c-1">
          <mxGeometry x="616" y="266" width="38" height="28" as="geometry" />
        </mxCell>
        <mxCell id="hbjri0h0WPWbcArkOZDH-43" value="KDC/KMC" style="rounded=0;whiteSpace=wrap;html=1;strokeColor=#333333;fillColor=none;gradientColor=none;" vertex="1" parent="cbhOVNQS-aoyCbuqmr_c-1">
          <mxGeometry x="673" y="266" width="62" height="28" as="geometry" />
        </mxCell>
        <mxCell id="hbjri0h0WPWbcArkOZDH-45" value="数据中心域" style="text;html=1;strokeColor=none;fillColor=none;align=center;verticalAlign=middle;whiteSpace=wrap;rounded=0;" vertex="1" parent="cbhOVNQS-aoyCbuqmr_c-1">
          <mxGeometry x="643" y="203" width="66" height="30" as="geometry" />
        </mxCell>
        <mxCell id="hbjri0h0WPWbcArkOZDH-47" value="" style="rounded=1;whiteSpace=wrap;html=1;fillColor=#b1ddf0;strokeColor=#10739e;arcSize=6;align=left;" vertex="1" parent="cbhOVNQS-aoyCbuqmr_c-1">
          <mxGeometry x="371" y="207" width="139" height="176" as="geometry" />
        </mxCell>
        <mxCell id="hbjri0h0WPWbcArkOZDH-56" style="edgeStyle=orthogonalEdgeStyle;rounded=0;orthogonalLoop=1;jettySize=auto;html=1;exitX=0.5;exitY=1;exitDx=0;exitDy=0;entryX=0.5;entryY=0;entryDx=0;entryDy=0;endArrow=none;endFill=0;fillColor=#ffcd28;gradientColor=#ffa500;strokeColor=#d79b00;" edge="1" parent="cbhOVNQS-aoyCbuqmr_c-1" source="hbjri0h0WPWbcArkOZDH-48" target="hbjri0h0WPWbcArkOZDH-17">
          <mxGeometry relative="1" as="geometry" />
        </mxCell>
        <mxCell id="hbjri0h0WPWbcArkOZDH-48" value="信令网关管理平台&lt;br&gt;二级平台" style="rounded=0;whiteSpace=wrap;html=1;fillColor=#ffcd28;gradientColor=#ffa500;strokeColor=#d79b00;" vertex="1" parent="cbhOVNQS-aoyCbuqmr_c-1">
          <mxGeometry x="387.5" y="334" width="106" height="42" as="geometry" />
        </mxCell>
        <mxCell id="hbjri0h0WPWbcArkOZDH-50" value="XGW-U" style="rounded=0;whiteSpace=wrap;html=1;" vertex="1" parent="cbhOVNQS-aoyCbuqmr_c-1">
          <mxGeometry x="409.5" y="214" width="62" height="36" as="geometry" />
        </mxCell>
        <mxCell id="hbjri0h0WPWbcArkOZDH-51" value="TCF/TMF" style="rounded=0;whiteSpace=wrap;html=1;" vertex="1" parent="cbhOVNQS-aoyCbuqmr_c-1">
          <mxGeometry x="409.5" y="254" width="62" height="36" as="geometry" />
        </mxCell>
        <mxCell id="hbjri0h0WPWbcArkOZDH-52" value="基站网管" style="rounded=0;whiteSpace=wrap;html=1;" vertex="1" parent="cbhOVNQS-aoyCbuqmr_c-1">
          <mxGeometry x="409.5" y="294" width="62" height="36" as="geometry" />
        </mxCell>
        <mxCell id="hbjri0h0WPWbcArkOZDH-53" value="省级域" style="text;html=1;strokeColor=none;fillColor=none;align=center;verticalAlign=middle;whiteSpace=wrap;rounded=0;" vertex="1" parent="cbhOVNQS-aoyCbuqmr_c-1">
          <mxGeometry x="376.5" y="216" width="24" height="50" as="geometry" />
        </mxCell>
      </root>
    </mxGraphModel>
  </diagram>
</mxfile>
